<svg width="40" height="41" viewBox="0 0 40 41" fill="none" xmlns="http://www.w3.org/2000/svg">
<path d="M39.4141 39.7301H34.3614C34.1424 38.9115 33.4766 38.2533 32.6195 38.0715L31.1505 37.76L30.5245 36.531L28.4326 32.0795C28.1102 31.3938 27.0498 31.8922 27.372 32.5779L29.0829 36.2187L27.8171 36.2418L20.4704 26.3844C20.2395 26.0747 19.7609 26.0748 19.5301 26.3844L12.1834 36.2418L10.9177 36.2187L16.8621 23.5689H19.9832H20.0173H23.1384L26.094 29.8583C26.4084 30.5272 27.476 30.044 27.1546 29.3599L24.0957 22.8505V20.0096V16.9487H35.2981C36.9529 16.9487 38.2991 15.6031 38.2991 13.9491C38.2991 13.6255 38.0368 13.3632 37.7132 13.3632H23.1204C22.8874 13.0877 22.6181 12.8421 22.318 12.6349C23.0284 11.9686 23.4734 11.0228 23.4734 9.97447C23.4734 9.01782 23.4734 8.06118 23.4734 7.10454C23.4734 6.07758 23.0641 5.14492 22.4011 4.45898C22.4898 4.18718 22.537 3.90124 22.537 3.61437C22.537 2.11866 21.3196 0.901855 19.8233 0.901855C18.327 0.901855 17.1096 2.11866 17.1096 3.61437C17.1096 3.81632 17.133 4.01601 17.177 4.21117C16.4628 4.82359 15.9762 5.69844 15.8695 6.70125C15.8184 7.18047 15.9277 7.64813 16.1733 8.04454V9.97455C16.1733 11.0992 16.685 12.1064 17.4879 12.7764C17.2639 12.9513 17.0596 13.1482 16.8778 13.3633H9.31094C8.55336 13.3633 8.55336 14.5352 9.31094 14.5352H16.1821C16.0288 14.9297 15.9357 15.3497 15.9113 15.7815L4.70187 15.7768C3.89828 15.7768 3.21406 15.2564 2.96914 14.535H6.1482C6.90578 14.535 6.90578 13.3632 6.1482 13.3632H2.2868C1.9632 13.3632 1.70086 13.6255 1.70086 13.9491C1.70086 15.6031 3.04711 16.9487 4.70164 16.9487L15.9043 16.9532V20.0095V22.852L9.47625 36.5309L8.85023 37.76L7.38125 38.0715C6.52422 38.2533 5.85836 38.9114 5.63937 39.73H0.585938C0.262344 39.73 0 39.9923 0 40.3159C0 40.6395 0.262344 40.9019 0.585938 40.9019H39.4141C39.7377 40.9019 40 40.6395 40 40.3159C40 39.9923 39.7377 39.7301 39.4141 39.7301ZM20.0003 27.7145L27.0533 37.1779L27.9652 38.4621C27.9395 38.8527 27.9427 39.3693 28.0764 39.7301H11.9242C12.058 39.3693 12.0611 38.8528 12.0355 38.4621L12.9473 37.1779L20.0003 27.7145ZM20.0174 22.3969H19.9833H17.0761V20.5954H22.9239V22.3969H20.0174ZM37.0309 14.535C36.7859 15.2564 36.1017 15.7768 35.2981 15.7768H24.0884C24.0636 15.3459 23.9705 14.9275 23.8177 14.535H37.0309ZM19.8233 2.07366C20.6734 2.07366 21.3651 2.76483 21.3651 3.61429C21.3651 3.64163 21.3641 3.66882 21.3627 3.69585C20.85 3.43897 20.2721 3.29351 19.6606 3.29351C19.1765 3.29351 18.7123 3.38366 18.2848 3.54843C18.3197 2.7296 18.9953 2.07366 19.8233 2.07366ZM17.0347 6.82516C17.1779 5.47992 18.3069 4.46538 19.6607 4.46538C21.1169 4.46538 22.3015 5.64922 22.3015 7.10446V7.14454L18.1573 7.8729C17.5367 7.98212 16.9679 7.45219 17.0347 6.82516ZM17.3451 8.96095C17.6807 9.06525 18.0191 9.08736 18.3602 9.0272L22.3015 8.33446V9.97447C22.3015 11.3404 21.1902 12.4517 19.8223 12.4517C18.4563 12.4517 17.3451 11.3404 17.3451 9.97447V8.96095ZM19.8243 13.6235C20.3154 13.6235 20.7839 13.5254 21.212 13.3487C22.2433 13.8196 22.9239 14.8646 22.9239 16.0082V16.009V19.4235H17.0761V16.009V16.0082C17.0761 14.9275 17.6855 13.9275 18.637 13.4245C19.0095 13.5529 19.4086 13.6235 19.8243 13.6235ZM6.90094 39.7301C7.05852 39.4744 7.31617 39.2833 7.6243 39.2179L9.36688 38.8484C9.53992 38.8117 9.68719 38.6988 9.76742 38.5411L10.339 37.4189H11.3388C11.162 37.6125 10.8635 37.9972 10.8635 38.2752V39.1084C10.8635 39.4512 10.5844 39.7301 10.2412 39.7301H6.90094V39.7301ZM29.7595 39.7301C29.4162 39.7301 29.1371 39.4511 29.1371 39.1083C29.2127 38.4682 29.1038 37.903 28.6618 37.4189H29.6616L30.2332 38.5411C30.3135 38.6987 30.4607 38.8116 30.6338 38.8483L32.3763 39.2179C32.6845 39.2832 32.9422 39.4743 33.0997 39.73H29.7595V39.7301Z" fill="#68B78A"/>
</svg>
