<svg width="34" height="41" viewBox="0 0 34 41" fill="none" xmlns="http://www.w3.org/2000/svg">
<path d="M15.9948 19.5665H18.6618C19.03 19.5665 19.3285 19.268 19.3285 18.8998V16.8997C19.3285 15.795 18.433 14.8994 17.3284 14.8994C16.2237 14.8994 15.3281 15.795 15.3281 16.8997V18.8998C15.3281 19.2682 15.6266 19.5665 15.9948 19.5665ZM16.6615 16.8997C16.6615 16.5316 16.96 16.2331 17.3284 16.2331C17.6966 16.2331 17.9951 16.5316 17.9951 16.8997V18.2331H16.6615V16.8997Z" fill="#68B78A"/>
<path d="M0.660156 37.5684V40.2352C0.660156 40.6033 0.958672 40.9019 1.32684 40.9019H33.3291C33.6972 40.9019 33.9957 40.6033 33.9957 40.2352V37.5684C33.9957 37.5136 33.989 37.4592 33.9758 37.4063L32.6624 32.1527V26.2342C32.6624 25.8658 32.3639 25.5673 31.9957 25.5673H29.9954V21.5672C29.9954 21.199 29.6969 20.9005 29.3287 20.9005H26.6619C26.2938 20.9005 25.9953 21.199 25.9953 21.5672V22.9006H24.6619V21.5672C24.6619 21.199 24.3634 20.9005 23.9952 20.9005H21.707V13.5667H22.6618C23.03 13.5664 23.3283 13.2679 23.3283 12.8997C23.3283 12.7231 23.2581 12.5536 23.133 12.4286L17.6261 7.29007V6.01099L21.6264 4.16588C21.9559 4.00156 22.0898 3.60139 21.9258 3.27167C21.861 3.14205 21.7561 3.0369 21.6264 2.97235L17.6261 0.972298C17.2966 0.807711 16.8962 0.94137 16.7316 1.27081C16.6859 1.36225 16.6617 1.4631 16.6611 1.56556V7.29007L11.5229 12.4286C11.2626 12.6889 11.2626 13.1111 11.5229 13.3715C11.648 13.4962 11.8174 13.5664 11.9943 13.5667H12.908V20.9005H10.6607C10.2925 20.9005 9.99401 21.199 9.99401 21.5672V22.9006H8.66064V21.5672C8.66064 21.199 8.36213 20.9005 7.99396 20.9005H5.32695C4.95878 20.9005 4.66027 21.199 4.66027 21.5672V25.5676H2.66021C2.29204 25.5676 1.99353 25.8661 1.99353 26.2342V32.1527L0.680057 37.4063C0.66688 37.4592 0.660156 37.5136 0.660156 37.5684ZM11.3277 29.5677H12.661V30.901C12.661 31.2692 12.9595 31.5677 13.3277 31.5677H15.9947C16.3629 31.5677 16.6614 31.2692 16.6614 30.901V29.5677H17.9948V30.901C17.9948 31.2692 18.2933 31.5677 18.6615 31.5677H21.3285C21.6966 31.5677 21.9952 31.2692 21.9952 30.901V29.5677H23.3285V39.5685H20.6615V36.2348C20.6615 34.3939 19.1692 32.9014 17.3281 32.9014C15.487 32.9014 13.9944 34.3939 13.9944 36.2348V39.5685H11.3277V29.5677ZM15.3278 39.5685V36.2348C15.3278 35.1303 16.2233 34.2347 17.3281 34.2347C18.4326 34.2347 19.3281 35.1303 19.3281 36.2348V39.5685H15.3278ZM31.329 26.9009V32.2344C31.329 32.2893 31.3357 32.3436 31.3489 32.3966L32.6624 37.6502V39.5685H24.4615V27.1286H25.9953V27.5676C25.9953 27.9358 26.2938 28.2343 26.6619 28.2343H29.329C29.6971 28.2343 29.9956 27.9358 29.9956 27.5676V26.9009H31.329ZM17.6261 4.82503V2.26185L20.6615 3.63908L17.6261 4.82503ZM17.1163 8.19161L21.9952 12.6676H12.449L17.1163 8.19161ZM20.6615 13.5667V22.9006H19.3281V21.5672C19.3281 21.199 19.0296 20.9005 18.6615 20.9005H15.9944C15.6263 20.9005 15.3278 21.199 15.3278 21.5672V22.9006H13.9944V13.5667H20.6615ZM5.99391 22.2339H7.32727V23.5672C7.32727 23.9354 7.62579 24.2339 7.99396 24.2339H10.661C11.0291 24.2339 11.3277 23.9354 11.3277 23.5672V22.2339H12.661V23.5672C12.661 23.9354 12.9595 24.2339 13.3277 24.2339H15.9947C16.3629 24.2339 16.6614 23.9354 16.6614 23.5672V22.2339H17.9948V23.5672C17.9948 23.9354 18.2933 24.2339 18.6615 24.2339H21.3285C21.6966 24.2339 21.9952 23.9354 21.9952 23.5672V22.2339H23.3285V23.5672C23.3285 23.9354 23.627 24.2339 23.9952 24.2339H26.6622C27.0304 24.2339 27.3289 23.9354 27.3289 23.5672V22.2339H28.6623V26.9009H27.3289V26.2342C27.3289 25.8658 27.0304 25.5673 26.6622 25.5673H23.9952C23.627 25.5673 23.3285 25.8658 23.3285 26.2342V28.2343H21.3282C20.96 28.2343 20.6615 28.5328 20.6615 28.901V30.2344H19.3281V28.901C19.3281 28.5328 19.0296 28.2343 18.6615 28.2343H15.9944C15.6263 28.2343 15.3278 28.5328 15.3278 28.901V30.2344H13.9944V28.901C13.9944 28.5328 13.6959 28.2343 13.3274 28.2343H11.3274V26.2342C11.3274 25.8658 11.0289 25.5673 10.6607 25.5673H7.99369C7.62552 25.5673 7.32701 25.8658 7.32701 26.2342V26.9009H5.99364L5.99391 22.2339ZM1.99353 37.6505L3.307 32.3966C3.32017 32.3436 3.3269 32.2893 3.3269 32.2347V26.9009H4.66053V27.5676C4.66053 27.9358 4.95905 28.2343 5.32722 28.2343H7.99396C8.3624 28.2343 8.66091 27.9358 8.66091 27.5676V26.9009H10.4214V39.5685H1.99353V37.6505Z" fill="#68B78A"/>
<path d="M5.32812 31.5674H6.66177V32.901H5.32812V31.5674Z" fill="#68B78A"/>
<path d="M7.99609 31.5674H9.32946V32.901H7.99609V31.5674Z" fill="#68B78A"/>
<path d="M29.332 30.9014H30.6654V32.2347H29.332V30.9014Z" fill="#68B78A"/>
<path d="M26.6641 30.9014H27.9974V32.2347H26.6641V30.9014Z" fill="#68B78A"/>
</svg>
