<svg width="41" height="41" viewBox="0 0 41 41" fill="none" xmlns="http://www.w3.org/2000/svg">
<path d="M38.0278 20.9165H37.3607V4.90479H38.0278C39.1332 4.90479 40.0293 4.00866 40.0293 2.90332C40.0293 1.79798 39.1333 0.901855 38.0278 0.901855H2.00147C0.896047 0.901855 0 1.7979 0 2.90332C0 4.00874 0.896047 4.90479 2.00147 4.90479H2.66859V20.9165H2.00147C0.896047 20.9165 0 21.8126 0 22.918C0 24.0233 0.896047 24.9194 2.00147 24.9194H38.0278C39.1332 24.9194 40.0293 24.0233 40.0293 22.918C40.0293 21.8126 39.1333 20.9165 38.0278 20.9165ZM2.00147 3.57045C1.63323 3.56998 1.33481 3.27156 1.33434 2.90332C1.33481 2.53508 1.63323 2.23666 2.00147 2.23619H38.0278C38.3963 2.23619 38.695 2.53485 38.695 2.90332C38.695 3.27179 38.3963 3.57045 38.0278 3.57045H2.00147ZM36.0264 4.90479V20.9165H4.00293V4.90479H36.0264ZM38.0278 23.5851H2.00147C1.63299 23.5851 1.33434 23.2865 1.33434 22.918C1.33434 22.5495 1.63299 22.2508 2.00147 22.2508H38.0278C38.3961 22.2513 38.6945 22.5497 38.695 22.918C38.6945 23.2862 38.3961 23.5846 38.0278 23.5851Z" fill="#68B78A"/>
<path d="M11.3432 16.2014C11.7116 16.2014 12.0103 15.9027 12.0103 15.5343V12.2681L14.0118 13.1186V17.0998L14.0132 17.1071C14.014 17.1918 14.031 17.2756 14.0631 17.354C14.109 17.4259 14.1561 17.497 14.2044 17.5673C14.2659 17.6303 14.3394 17.6804 14.4204 17.7148L17.7378 19.1234C19.1961 19.7373 20.8403 19.7366 22.2981 19.1217L25.612 17.7147C25.693 17.6803 25.7665 17.6302 25.828 17.5672C25.8763 17.497 25.9234 17.4258 25.9693 17.3539C26.0015 17.2755 26.0184 17.1917 26.0191 17.107L26.0205 17.0997V13.1185L28.6628 11.9957C29.0858 11.7991 29.3564 11.3751 29.3564 10.9086C29.3564 10.4422 29.0858 10.0181 28.6628 9.82157L20.4302 6.3233C20.1657 6.20994 19.8663 6.20994 19.6018 6.3233L11.3695 9.82157C10.9411 10.0119 10.668 10.4399 10.676 10.9086V15.5341C10.676 15.9027 10.9747 16.2014 11.3432 16.2014ZM24.6862 16.6584L21.7804 17.8921C20.6535 18.3669 19.3827 18.3675 18.2553 17.8937L15.3459 16.6584V13.6856L19.602 15.4942C19.8665 15.6075 20.1659 15.6075 20.4304 15.4942L24.6861 13.6856V16.6584H24.6862ZM20.0162 7.59705L27.809 10.9088L25.0968 12.0613L25.091 12.0638L20.0162 14.2204L14.9413 12.0638L14.9355 12.0613L12.2233 10.9088L20.0162 7.59705Z" fill="#68B78A"/>
<path d="M38.6969 36.9281H37.3626V36.0704C37.3455 34.3813 36.3762 32.8466 34.8583 32.1053C35.921 31.1982 36.3057 29.7249 35.8222 28.414C35.3388 27.1031 34.0896 26.2324 32.6925 26.2324C31.2953 26.2324 30.0461 27.1031 29.5627 28.414C29.0793 29.7249 29.4639 31.1982 30.5266 32.1053C29.0087 32.8466 28.0394 34.3813 28.0223 36.0704V36.9281H24.6865V36.0704C24.6694 34.3813 23.7001 32.8466 22.1823 32.1053C23.2449 31.1982 23.6296 29.7249 23.1462 28.414C22.6628 27.1031 21.4136 26.2324 20.0164 26.2324C18.6192 26.2324 17.37 27.1031 16.8866 28.414C16.4032 29.7249 16.7878 31.1982 17.8505 32.1053C16.3327 32.8466 15.3634 34.3813 15.3462 36.0704V36.9281H12.0107V36.0704C11.9936 34.3813 11.0243 32.8466 9.50649 32.1053C10.5691 31.1982 10.9539 29.7249 10.4704 28.414C9.987 27.1031 8.7378 26.2324 7.34061 26.2324C5.94341 26.2324 4.69422 27.1031 4.21082 28.414C3.72742 29.7249 4.11207 31.1982 5.17473 32.1053C3.6569 32.8466 2.68759 34.3813 2.67047 36.0704V36.9281H1.33629C0.599656 36.9288 0.00265677 37.5258 0.00195312 38.2625V39.5968C0.00265677 40.3334 0.599656 40.9304 1.33629 40.9311H38.697C39.4336 40.9304 40.0306 40.3334 40.0313 39.5968V38.2625C40.0306 37.5258 39.4336 36.9288 38.6969 36.9281ZM32.6925 27.5879C33.7979 27.5879 34.694 28.484 34.694 29.5894C34.694 30.6948 33.798 31.5909 32.6925 31.5909C31.5877 31.5897 30.6922 30.6943 30.6911 29.5894C30.6911 28.4841 31.5872 27.5879 32.6925 27.5879ZM29.3568 36.0704C29.4607 34.3042 30.9233 32.9251 32.6926 32.9251C34.4619 32.9251 35.9244 34.3042 36.0284 36.0704V36.9281H29.3569V36.0704H29.3568ZM20.0166 27.5879C21.122 27.5879 22.0181 28.484 22.0181 29.5894C22.0181 30.6948 21.122 31.5909 20.0166 31.5909C18.9117 31.5897 18.0163 30.6943 18.0151 29.5894C18.0151 28.4841 18.9113 27.5879 20.0166 27.5879ZM16.6808 36.0704C16.7847 34.3042 18.2473 32.9251 20.0166 32.9251C21.7859 32.9251 23.2484 34.3042 23.3524 36.0704V36.9281H16.6809V36.0704H16.6808ZM7.34069 27.5879C8.44603 27.5879 9.34215 28.484 9.34215 29.5894C9.34215 30.6948 8.44611 31.5909 7.34069 31.5909C6.23581 31.5897 5.34039 30.6943 5.33922 29.5894C5.33922 28.4841 6.23527 27.5879 7.34069 27.5879ZM4.00488 36.0704C4.06102 34.2823 5.55235 32.8762 7.34069 32.9252C9.12895 32.8762 10.6203 34.2823 10.6765 36.0704V36.9281H4.00488V36.0704ZM1.33629 39.5967V38.2624H38.697L38.6979 39.5967H1.33629Z" fill="#68B78A"/>
</svg>
