<svg width="32" height="35" viewBox="0 0 32 35" fill="none" xmlns="http://www.w3.org/2000/svg">
<path d="M15.9203 22.0337C15.9203 22.0337 15.9868 24.6227 14.5849 25.9228C13.183 27.2173 7.12109 34.0343 7.12109 34.0343" stroke="#68B78A" stroke-width="1.8" stroke-miterlimit="10" stroke-linecap="round" stroke-linejoin="round"/>
<path d="M15.9263 3.83252V21.9693C15.9263 22.0121 15.9257 22.0547 15.9258 22.0975C15.9266 22.5038 15.9901 24.7434 17.2617 25.9226C18.6636 27.2171 24.7255 34.0341 24.7255 34.0341" stroke="#68B78A" stroke-width="1.8" stroke-miterlimit="10" stroke-linecap="round" stroke-linejoin="round"/>
<path d="M15.9187 22.0337C15.9187 22.0337 15.9852 24.6227 14.5888 25.9228C13.1869 27.2173 7.125 34.0343 7.125 34.0343" stroke="#68B78A" stroke-width="1.8" stroke-miterlimit="10" stroke-linecap="round" stroke-linejoin="round"/>
<path d="M6.48438 5.26635C7.26567 4.1774 8.04696 3.2718 8.67865 2.54954C8.928 2.26064 9.14964 2.01062 9.32695 1.79395" stroke="#68B78A" stroke-width="1.8" stroke-miterlimit="10" stroke-linecap="round" stroke-linejoin="round"/>
<path d="M9.11719 7.16047C10.1367 5.73817 11.2394 4.59367 11.8489 3.83252" stroke="#68B78A" stroke-width="1.8" stroke-miterlimit="10" stroke-linecap="round" stroke-linejoin="round"/>
<path d="M1.28125 8.17195C1.69129 5.89961 3.25942 3.52726 4.57265 2.35498" stroke="#68B78A" stroke-width="1.8" stroke-miterlimit="10" stroke-linecap="round" stroke-linejoin="round"/>
<path d="M4.27123 22.4009C3.56197 21.0453 2.07142 12.7171 4.98049 7.7168" stroke="#68B78A" stroke-width="1.8" stroke-miterlimit="10" stroke-linecap="round" stroke-linejoin="round"/>
<path d="M7.21614 19.7003C6.48472 16.7557 6.48472 12.3722 7.87553 9.18311" stroke="#68B78A" stroke-width="1.8" stroke-miterlimit="10" stroke-linecap="round" stroke-linejoin="round"/>
<path d="M25.4832 5.26635C24.7075 4.1774 23.9206 3.2718 23.2889 2.54954C23.0396 2.26064 22.8179 2.01062 22.6406 1.79395" stroke="#68B78A" stroke-width="1.8" stroke-miterlimit="10" stroke-linecap="round" stroke-linejoin="round"/>
<path d="M22.8489 7.16047C21.8294 5.73817 20.7267 4.59367 20.1172 3.83252" stroke="#68B78A" stroke-width="1.8" stroke-miterlimit="10" stroke-linecap="round" stroke-linejoin="round"/>
<path d="M30.682 8.17195C30.272 5.89961 28.7039 3.52726 27.3906 2.35498" stroke="#68B78A" stroke-width="1.8" stroke-miterlimit="10" stroke-linecap="round" stroke-linejoin="round"/>
<path d="M27.6875 22.4009C28.3967 21.0453 29.8873 12.7171 26.9727 7.7168" stroke="#68B78A" stroke-width="1.8" stroke-miterlimit="10" stroke-linecap="round" stroke-linejoin="round"/>
<path d="M24.7531 19.7003C25.4846 16.7557 25.4846 12.3722 24.0938 9.18311" stroke="#68B78A" stroke-width="1.8" stroke-miterlimit="10" stroke-linecap="round" stroke-linejoin="round"/>
<path d="M1.28125 28.4616C1.28125 28.4616 8.63982 23.6836 10.1248 22.0335C11.6154 20.3834 10.6623 16.9276 10.5072 13.4497C10.3735 10.449 13.677 5.96022 14.5954 4.77344C14.7508 4.57259 14.8875 4.35894 15.07 4.18237C15.3997 3.86346 16.0498 3.50823 16.908 4.37835C16.9709 4.44221 17.0269 4.50827 17.0826 4.57856C17.688 5.34245 21.4661 10.2449 21.3234 13.4497C21.1682 16.9276 20.2207 20.3834 21.7112 22.0335C23.2018 23.6836 30.5548 28.4616 30.5548 28.4616" stroke="#68B78A" stroke-width="1.8" stroke-miterlimit="10" stroke-linecap="round" stroke-linejoin="round"/>
</svg>
