<svg width="35" height="37" viewBox="0 0 35 37" fill="none" xmlns="http://www.w3.org/2000/svg">
<path d="M30.7646 24.562C32.4444 26.0066 33.4468 27.7259 33.4468 29.2859C33.4468 32.8782 28.1155 35.7894 21.5339 35.7894C17.9816 35.7894 14.7982 34.9435 12.6172 33.5977" stroke="#68B78A" stroke-width="1.8" stroke-miterlimit="10" stroke-linecap="round" stroke-linejoin="round"/>
<path d="M15.9889 18.1514C13.3948 19.4202 11.6875 21.3921 11.6875 22.9686C11.6875 23.5288 11.9078 24.0671 12.3043 24.5615C13.6923 26.3027 17.2997 27.5441 21.5405 27.5441C25.7758 27.5441 29.3833 26.3027 30.7712 24.5615C31.1733 24.0617 31.3936 23.5288 31.3936 22.9686C31.3936 21.3592 29.6036 19.3268 26.8939 18.0635" stroke="#68B78A" stroke-width="1.8" stroke-miterlimit="10" stroke-linecap="round" stroke-linejoin="round"/>
<path d="M30.7215 28.8403C30.7215 28.8403 28.7663 32.4107 20.582 32.191" stroke="#68B78A" stroke-width="1.8" stroke-miterlimit="10" stroke-linecap="round" stroke-linejoin="round"/>
<path d="M28.7726 22.2056C28.7726 22.2056 26.5255 24.6993 21.2383 24.3203" stroke="#68B78A" stroke-width="1.8" stroke-miterlimit="10" stroke-linecap="round" stroke-linejoin="round"/>
<path d="M17.3219 11.7469C15.2235 12.9828 13.8301 14.9053 13.8301 15.9929C13.8301 16.8278 14.6562 17.5913 15.989 18.1516C17.3494 18.7174 19.2385 19.0634 21.3369 19.0634C23.5344 19.0634 25.5226 18.6789 26.894 18.0582C28.1057 17.5089 28.8437 16.7894 28.8437 15.9929C28.8437 14.8943 27.4227 12.9389 25.2913 11.7085" stroke="#68B78A" stroke-width="1.8" stroke-miterlimit="10" stroke-linecap="round" stroke-linejoin="round"/>
<path d="M26.525 15.5479C26.525 15.5479 24.9223 16.3992 21.5352 16.5366" stroke="#68B78A" stroke-width="1.8" stroke-miterlimit="10" stroke-linecap="round" stroke-linejoin="round"/>
<path d="M18.7215 6.80908C17.3502 7.74836 16.4414 9.2479 16.4414 10.2091C16.4414 10.7804 16.7664 11.3077 17.3226 11.7471C18.1983 12.4337 19.6468 12.8842 21.2881 12.8842C22.9513 12.8842 24.4219 12.4228 25.2921 11.7142C25.8208 11.2857 26.1292 10.7694 26.1292 10.2146C26.1292 9.25339 25.2205 7.75385 23.8491 6.81457" stroke="#68B78A" stroke-width="1.8" stroke-miterlimit="10" stroke-linecap="round" stroke-linejoin="round"/>
<path d="M24.2433 9.73633C24.2433 9.73633 23.5107 10.2087 21.875 10.2966" stroke="#68B78A" stroke-width="1.8" stroke-miterlimit="10" stroke-linecap="round" stroke-linejoin="round"/>
<path d="M24.9597 5.25443C24.9597 6.45737 23.3129 7.4296 21.2806 7.4296C19.2483 7.4296 17.6016 6.45737 17.6016 5.25443C17.6016 4.0515 19.2483 1.79395 21.2806 1.79395C23.3129 1.79395 24.9597 4.0515 24.9597 5.25443Z" stroke="#68B78A" stroke-width="1.8" stroke-miterlimit="10" stroke-linecap="round" stroke-linejoin="round"/>
<path d="M23.5328 4.87012C23.5328 4.87012 23.1858 5.1118 22.4258 5.24363" stroke="#68B78A" stroke-width="1.8" stroke-miterlimit="10" stroke-linecap="round" stroke-linejoin="round"/>
<path d="M4.91363 35.1911C6.51166 35.9346 8.02488 34.3653 8.02488 32.6027V32.6027C8.02488 29.8014 5.74475 27.5273 2.9359 27.5273H2.48245C1.99261 27.5273 1.64348 28.5952 1.73525 29.0763V29.0763C1.89384 29.8803 1.70007 33.696 4.91363 35.1911Z" stroke="#68B78A" stroke-width="1.8" stroke-miterlimit="10" stroke-linecap="round" stroke-linejoin="round"/>
<path d="M8.08953 28.7632C8.98175 27.9942 10.1438 27.5273 11.4161 27.5273H12.8884C13.3783 27.5273 13.7274 28.5952 13.6356 29.0763V29.0763C13.4429 30.087 13.6577 35.7941 8.02344 35.7941" stroke="#68B78A" stroke-width="1.8" stroke-miterlimit="10" stroke-linecap="round" stroke-linejoin="round"/>
<path d="M8.0238 23.084C8.0238 23.084 6.17326 23.9573 5.64453 26.3852" stroke="#68B78A" stroke-width="1.8" stroke-miterlimit="10" stroke-linecap="round" stroke-linejoin="round"/>
<path d="M8.02344 23.0835C8.02344 23.0835 9.87398 23.9569 10.4027 26.3847" stroke="#68B78A" stroke-width="1.8" stroke-miterlimit="10" stroke-linecap="round" stroke-linejoin="round"/>
</svg>
