<svg width="41" height="36" viewBox="0 0 41 36" fill="none" xmlns="http://www.w3.org/2000/svg">
<path d="M39.9745 15.5366L35.3642 1.3491C35.2307 0.938817 34.79 0.714259 34.3795 0.847478L0.547867 11.8414C0.137506 11.9748 -0.0870521 12.4156 0.0462449 12.8261L2.22853 19.5416C2.22791 19.5548 2.22658 19.5677 2.22658 19.5809V34.4987C2.22658 34.9302 2.57647 35.2801 3.00792 35.2801H38.5811C39.0126 35.2801 39.3625 34.9302 39.3625 34.4987V19.5809C39.3625 19.1495 39.0126 18.7996 38.5811 18.7996H32.4616L39.4729 16.5212C39.8832 16.3878 40.1078 15.947 39.9745 15.5366ZM37.7997 20.3623V33.7174H3.78919V20.3623H8.1172V29.0671C8.1172 29.4985 8.46708 29.8484 8.89854 29.8484C9.33 29.8484 9.67988 29.4985 9.67988 29.0671V20.3623H27.5289H37.7997ZM27.4052 18.7996H3.6305L1.77387 13.0862L5.8924 11.7478L7.46775 16.5356C7.57596 16.8644 7.88155 17.0729 8.20979 17.0729C8.29073 17.0729 8.37309 17.0603 8.45419 17.0335C8.86408 16.8986 9.08708 16.4571 8.95214 16.0471L7.3786 11.2648L34.1194 2.5751L38.2469 15.2764L27.4052 18.7996Z" fill="#68B78A"/>
<path d="M32.9355 5.99995C32.8021 5.58967 32.3613 5.36519 31.9509 5.49833L11.5791 12.1184C11.1688 12.2518 10.9442 12.6926 11.0775 13.1031C11.1849 13.4332 11.4911 13.6431 11.8205 13.6431C11.9005 13.6431 11.9819 13.6307 12.0621 13.6047L32.4339 6.9846C32.8443 6.85122 33.0689 6.41039 32.9355 5.99995Z" fill="#68B78A"/>
<path d="M29.4957 11.0751L33.3518 9.82203C33.7622 9.68866 33.9867 9.24783 33.8534 8.83739C33.72 8.42703 33.2792 8.20255 32.8688 8.33577L29.0127 9.5888C28.6024 9.72218 28.3778 10.163 28.5111 10.5735C28.6184 10.9036 28.9247 11.1135 29.2541 11.1135C29.3341 11.1135 29.4156 11.1011 29.4957 11.0751Z" fill="#68B78A"/>
<path d="M32.7572 14.6642C32.8646 14.9944 33.1708 15.2043 33.5002 15.2043C33.5801 15.2043 33.6616 15.1919 33.7419 15.1659L34.9621 14.7693C35.3724 14.636 35.5971 14.1951 35.4637 13.7847C35.3302 13.3743 34.8896 13.1498 34.479 13.2831L33.2588 13.6796C32.8485 13.813 32.6238 14.2538 32.7572 14.6642Z" fill="#68B78A"/>
<path d="M30.5338 14.5653L29.3135 14.9618C28.9032 15.0952 28.6785 15.536 28.8119 15.9464C28.9192 16.2766 29.2255 16.4865 29.5549 16.4865C29.6348 16.4865 29.7162 16.4741 29.7965 16.4481L31.0169 16.0515C31.4272 15.9181 31.6518 15.4773 31.5185 15.0669C31.3852 14.6565 30.9447 14.432 30.5338 14.5653Z" fill="#68B78A"/>
<path d="M19.6312 12.6385L12.501 14.9555C12.0907 15.0889 11.866 15.5297 11.9994 15.9401C12.1068 16.2703 12.413 16.4802 12.7424 16.4802C12.8223 16.4802 12.9038 16.4678 12.984 16.4418L20.1142 14.1248C20.5245 13.9914 20.7491 13.5506 20.6158 13.1401C20.4823 12.7298 20.0415 12.5053 19.6312 12.6385Z" fill="#68B78A"/>
<path d="M8.89853 30.8872C8.46707 30.8872 8.11719 31.2371 8.11719 31.6686V31.9745C8.11719 32.406 8.46707 32.7559 8.89853 32.7559C9.32999 32.7559 9.67987 32.406 9.67987 31.9745V31.6686C9.67987 31.2371 9.32999 30.8872 8.89853 30.8872Z" fill="#68B78A"/>
<path d="M12.6328 23.253C12.6328 23.6845 12.9827 24.0344 13.4142 24.0344H34.8345C35.266 24.0344 35.6158 23.6845 35.6158 23.253C35.6158 22.8216 35.266 22.4717 34.8345 22.4717H13.4142C12.9827 22.4717 12.6328 22.8215 12.6328 23.253Z" fill="#68B78A"/>
<path d="M34.8321 25.4551H30.7774C30.346 25.4551 29.9961 25.805 29.9961 26.2364C29.9961 26.6679 30.346 27.0178 30.7774 27.0178H34.8321C35.2635 27.0178 35.6134 26.6679 35.6134 26.2364C35.6134 25.805 35.2635 25.4551 34.8321 25.4551Z" fill="#68B78A"/>
<path d="M34.8301 30.6572H33.547C33.1155 30.6572 32.7656 31.0071 32.7656 31.4386C32.7656 31.87 33.1155 32.2199 33.547 32.2199H34.8301C35.2615 32.2199 35.6114 31.87 35.6114 31.4386C35.6114 31.0071 35.2615 30.6572 34.8301 30.6572Z" fill="#68B78A"/>
<path d="M30.6855 30.6572H29.4024C28.971 30.6572 28.6211 31.0071 28.6211 31.4386C28.6211 31.87 28.971 32.2199 29.4024 32.2199H30.6855C31.1169 32.2199 31.4668 31.87 31.4668 31.4386C31.4668 31.0071 31.117 30.6572 30.6855 30.6572Z" fill="#68B78A"/>
<path d="M20.9113 25.4551H13.4142C12.9827 25.4551 12.6328 25.805 12.6328 26.2364C12.6328 26.6679 12.9827 27.0178 13.4142 27.0178H20.9113C21.3427 27.0178 21.6926 26.6679 21.6926 26.2364C21.6926 25.805 21.3427 25.4551 20.9113 25.4551Z" fill="#68B78A"/>
</svg>
