<svg width="40" height="41" viewBox="0 0 40 41" fill="none" xmlns="http://www.w3.org/2000/svg">
<path d="M31.1488 36.0207C30.9051 35.8075 30.5347 35.8324 30.3214 36.0761L27.904 38.841C27.6479 39.1341 27.2925 39.3027 26.9033 39.3158C26.513 39.3297 26.1481 39.1848 25.8728 38.9098L24.0096 37.0475V35.8158C24.0096 35.492 23.7472 35.2295 23.4233 35.2295C23.0994 35.2295 22.8369 35.492 22.8369 35.8158V37.2873V37.2933V40.3448C22.8369 40.6686 23.0994 40.9312 23.4233 40.9312C23.7472 40.9312 24.0096 40.6686 24.0096 40.3448V38.7056L25.0438 39.7393C25.5237 40.2188 26.1804 40.4893 26.8571 40.4893C27.5925 40.4893 28.3032 40.1667 28.787 39.6128L31.2044 36.8481C31.4176 36.6042 31.3926 36.2338 31.1488 36.0207ZM6.7968 35.2295C6.47289 35.2295 6.21044 35.492 6.21044 35.8158V40.3448C6.21044 40.6686 6.47289 40.9312 6.7968 40.9312C7.12071 40.9312 7.38317 40.6686 7.38317 40.3448V35.8158C7.38317 35.492 7.12063 35.2295 6.7968 35.2295ZM39.2708 10.1979L35.3405 7.00445C35.0687 6.78366 34.7035 6.73988 34.3872 6.89046C34.0709 7.04096 33.8744 7.35205 33.8744 7.7023V15.2391L33.8747 15.2424V24.7529L27.9707 31.4864L26.475 28.1895C25.5823 26.5216 23.5728 25.0595 21.7053 24.7529C20.9352 24.6265 19.1249 24.4209 18.4771 24.3143C17.993 24.2346 17.6415 23.8211 17.6415 23.3308V22.6378C18.0984 22.3497 18.5274 22.0103 18.9186 21.6187C20.2933 20.2432 21.0504 18.4151 21.0504 16.4711V16.2162H21.2763C22.4365 16.2215 23.4232 15.2349 23.4232 14.0693C23.4232 13.4509 23.1516 12.8761 22.7111 12.4767C23.052 11.9905 23.1486 11.3516 22.9546 10.7907C22.7872 10.3065 22.4226 9.90954 21.9545 9.70173C21.8929 9.67437 21.8308 9.6481 21.7689 9.62136V5.40046C21.7689 2.91997 19.7507 0.901855 17.2703 0.901855H10.2737C7.79323 0.901855 5.77512 2.91997 5.77512 5.40046V9.62136C5.71335 9.6481 5.65143 9.67437 5.5899 9.70166C5.12167 9.90954 4.75711 10.3065 4.58964 10.7907C4.39317 11.359 4.48965 11.988 4.83208 12.4774C4.392 12.8765 4.12078 13.4509 4.12078 14.0693C4.12078 15.2318 5.09618 16.2228 6.26845 16.2162H6.49439V16.4711C6.49439 19.0641 7.85695 21.3445 9.90322 22.6345V23.4504C9.90322 23.9009 9.59745 24.2911 9.16002 24.3994L4.29083 25.6002C1.92769 26.1831 0.277344 28.2899 0.277344 30.7237V40.3448C0.277344 40.6686 0.539801 40.9312 0.86371 40.9312C1.18762 40.9312 1.45008 40.6686 1.45008 40.3448L1.81336 30.7237C1.81336 28.8308 2.99418 27.2842 4.83208 26.8309L8.34325 25.8088C9.50933 27.6788 11.5493 28.8226 13.7721 28.8226C16.0785 28.8226 18.1605 27.6132 19.3054 25.6384L21.5026 25.9984C23.0124 26.2463 24.3446 27.1994 25.0664 28.5479L26.959 32.0813C27.1351 32.4109 27.4622 32.6332 27.8337 32.6759C28.2058 32.7186 28.575 32.576 28.8216 32.2947L32.8374 27.7146L35.3882 30.2663C35.3906 30.2687 35.3932 30.2707 35.3956 30.273L32.1257 34.0127C31.9125 34.2565 31.9375 34.6269 32.1812 34.8401C32.4242 35.0526 32.7947 35.0293 33.0086 34.7847L38.398 28.6211C39.5011 27.3699 39.3076 25.3689 38.0161 24.3364C37.1484 23.6428 36.0122 23.5106 35.0473 23.8995V15.518L39.2708 12.0864C39.5564 11.8543 39.7203 11.5102 39.7203 11.1421C39.7203 10.7741 39.5564 10.4299 39.2708 10.1979ZM22.2505 14.0693C22.2505 14.5978 21.8052 15.0461 21.2763 15.0435H21.0504V13.264C21.2729 13.28 21.4944 13.2556 21.7053 13.1943C22.0329 13.3559 22.2505 13.6954 22.2505 14.0693ZM6.49439 15.0435H6.26845C5.7365 15.0462 5.29352 14.5985 5.29352 14.0693C5.29352 13.6957 5.51055 13.3568 5.83727 13.1955C6.04829 13.2568 6.27322 13.2817 6.49432 13.2654L6.49439 15.0435ZM6.6027 11.8353C6.26675 11.9843 5.91452 12.0421 5.7397 11.7163C5.5555 11.3731 5.70999 10.9315 6.06572 10.7736C9.28824 9.34319 12.839 8.83845 16.3353 9.31418C16.6556 9.35742 16.9517 9.13311 16.9953 8.81225C17.039 8.49139 16.8336 7.83462 16.5126 7.79092C13.2859 7.35185 10.1626 7.57928 7.1149 8.67555V5.40046C7.1149 3.56654 8.43972 2.07459 10.2736 2.07459H17.2703C19.1042 2.07459 20.4394 3.56654 20.4394 5.40046V9.01252C19.9906 8.85115 19.6795 8.75685 19.2226 8.62832C18.9112 8.54075 18.6005 8.81554 18.5128 9.12725C18.4251 9.43896 18.6067 9.76279 18.9184 9.85051C19.7894 10.0956 20.6508 10.4062 21.4786 10.7735C21.8313 10.9301 21.9867 11.3721 21.8058 11.7139C21.6341 12.0382 21.3142 11.9696 20.9701 11.8171C16.5944 9.87945 11.0366 9.86952 6.6027 11.8353ZM7.88995 16.4711L7.66713 12.8798C11.5795 11.315 15.9655 11.3151 19.8777 12.88L19.7086 16.4711C19.7086 18.1019 19.2426 19.6357 18.0893 20.7897C16.9454 21.9344 15.3698 22.4156 13.7379 22.4156C10.3714 22.4157 7.88995 19.8388 7.88995 16.4711ZM13.7721 27.1958C12.0864 27.1958 10.5295 26.8437 9.5528 25.5053C10.5088 25.2083 11.1718 24.2521 11.0759 23.2331C11.9102 23.5673 12.8202 23.7514 13.7724 23.7514C14.7113 23.7514 15.6222 23.5732 16.4688 23.2356C16.4088 24.2458 17.1048 25.1582 18.0549 25.4199C17.0854 26.8119 15.5065 27.1958 13.7721 27.1958ZM37.2836 25.2521C38.0694 25.8802 38.1853 27.0904 37.5151 27.8492L36.1691 29.3885L33.6124 26.8309L34.8035 25.4725C35.44 24.7459 36.5296 24.6495 37.2836 25.2521ZM38.2309 11.2254L35.0473 13.419V8.90682L38.2309 11.1421C38.2486 11.1531 38.249 11.214 38.2309 11.2254ZM17.0007 16.0269C17.3246 16.0269 17.587 15.7644 17.587 15.4405V14.1487C17.587 13.8248 17.3246 13.5623 17.0007 13.5623C16.6768 13.5623 16.4143 13.8248 16.4143 14.1487V15.4405C16.4143 15.7645 16.6768 16.0269 17.0007 16.0269ZM10.5436 13.5624C10.2197 13.5624 9.95724 13.8249 9.95724 14.1487V15.4406C9.95724 15.7645 10.2197 16.027 10.5436 16.027C10.8675 16.027 11.13 15.7645 11.13 15.4406V14.1487C11.13 13.8248 10.8674 13.5624 10.5436 13.5624ZM15.5776 18.943C15.4219 18.6591 15.0656 18.5552 14.7815 18.7109C14.5613 18.8317 14.2026 18.9738 13.7502 18.9699C13.3159 18.9654 12.9735 18.8266 12.7628 18.7109C12.4786 18.5551 12.1224 18.6589 11.9666 18.9429C11.8108 19.2268 11.9147 19.5832 12.1986 19.7391C12.5269 19.9193 13.0605 20.1355 13.7379 20.1427C14.4222 20.1498 15.0073 19.9247 15.3456 19.7392C15.6295 19.5833 15.7333 19.2269 15.5776 18.943Z" fill="#68B78A"/>
</svg>
