<svg width="40" height="23" viewBox="0 0 40 23" fill="none" xmlns="http://www.w3.org/2000/svg">
<path d="M29.7165 15.6118C28.3759 15.6118 27.2852 16.7025 27.2852 18.0432C27.2852 19.3839 28.3759 20.4746 29.7165 20.4746C31.0572 20.4746 32.1479 19.3839 32.1479 18.0432C32.1479 16.7025 31.0572 15.6118 29.7165 15.6118ZM29.7165 19.3301C29.0069 19.3301 28.4296 18.7527 28.4296 18.0431C28.4296 17.3335 29.0069 16.7562 29.7165 16.7562C30.4262 16.7562 31.0035 17.3335 31.0035 18.0431C31.0035 18.7527 30.4262 19.3301 29.7165 19.3301Z" fill="#68B78A"/>
<path d="M8.20091 15.6118C6.86025 15.6118 5.76953 16.7025 5.76953 18.0432C5.76953 19.3839 6.86025 20.4746 8.20091 20.4746C9.54157 20.4746 10.6323 19.3839 10.6323 18.0432C10.6323 16.7025 9.54157 15.6118 8.20091 15.6118ZM8.20091 19.3301C7.49129 19.3301 6.91396 18.7527 6.91396 18.0431C6.91396 17.3335 7.49129 16.7562 8.20091 16.7562C8.91053 16.7562 9.48786 17.3335 9.48786 18.0431C9.48786 18.7527 8.91046 19.3301 8.20091 19.3301Z" fill="#68B78A"/>
<path d="M38.6452 4.85056C38.5693 4.61367 38.349 4.45284 38.1002 4.45284H36.2018L35.9365 3.54867V3.5486L35.7522 2.92016C35.7482 2.90665 35.7438 2.89322 35.7389 2.88002C35.2944 1.69685 34.1467 0.901855 32.8827 0.901855H1.95427C1.14379 0.901932 0.484375 1.56127 0.484375 2.37175V17.1455C0.484375 17.956 1.14379 18.6154 1.95427 18.6154H3.94983C4.2306 20.7115 6.0294 22.3336 8.20097 22.3336C10.3725 22.3336 12.1714 20.7115 12.4521 18.6154H25.4662C25.7469 20.7115 27.5457 22.3336 29.7173 22.3336C31.8889 22.3336 33.6878 20.7115 33.9684 18.6154H36.8286C37.6391 18.6154 38.2985 17.956 38.2985 17.1455V13.2467V13.1916C38.2985 11.7721 38.0466 10.3783 37.5499 9.04853L36.5375 5.59734H37.6825L38.4301 7.93218C38.5079 8.17518 38.7327 8.33006 38.9749 8.33006C39.3632 8.33006 39.638 7.95156 39.52 7.58321L38.6452 4.85056ZM37.1413 12.6745H34.0098C33.7693 12.6745 33.5336 12.5917 33.3462 12.441C32.4544 11.7249 31.4217 10.8955 30.5234 10.174C30.4057 10.0796 30.2781 9.99962 30.1448 9.93164V4.28186H34.9591C35.0947 4.74406 36.2786 8.77982 36.4577 9.39063C36.5272 9.62936 37.052 10.8412 37.1413 12.6745V12.6745ZM22.9211 9.68834V8.34936C22.9211 8.03335 22.665 7.77715 22.3489 7.77715C22.0328 7.77715 21.7767 8.03335 21.7767 8.34936V9.68834H20.7532V4.28186H21.7767V5.67905C21.7767 5.99506 22.0328 6.25126 22.3489 6.25126C22.665 6.25126 22.9211 5.99506 22.9211 5.67905V4.28186H26.8324V9.68834H22.9211ZM15.6975 9.68834V4.28186H19.6088V9.68834H15.6975ZM8.47396 9.68834V4.28186H12.3852V9.68834H8.47396ZM1.6288 9.68834V4.28186H5.16162V9.68834H1.6288ZM6.30604 4.28186H7.32954V9.68834H6.30604V4.28186ZM13.5295 4.28186H14.5531V9.68834H13.5295V4.28186ZM27.9768 4.28186H29.0004V9.68834H27.9768V4.28186ZM1.6288 2.37175C1.6288 2.19536 1.7778 2.04628 1.95427 2.04628H32.8828C33.6195 2.04628 34.2969 2.48467 34.6058 3.13744C32.414 3.13744 2.91062 3.13744 1.62887 3.13744V2.37175H1.6288ZM8.20097 21.1892C6.46626 21.1892 5.05496 19.7779 5.05496 18.0432C5.05496 16.3085 6.46626 14.8972 8.20097 14.8972C9.93569 14.8972 11.347 16.3085 11.347 18.0432C11.347 19.7779 9.93569 21.1892 8.20097 21.1892V21.1892ZM29.7173 21.1892C27.9826 21.1892 26.5713 19.7779 26.5713 18.0432C26.5713 16.3085 27.9826 14.8972 29.7173 14.8972C31.452 14.8972 32.8633 16.3085 32.8633 18.0432C32.8633 19.7779 31.4521 21.1892 29.7173 21.1892ZM36.8286 17.4709H33.9697C33.687 15.3559 31.8674 13.7527 29.7173 13.7527C27.5321 13.7527 25.7427 15.3923 25.4649 17.4709H12.4534C12.1742 15.3824 10.3751 13.7527 8.20097 13.7527C6.02985 13.7527 4.22831 15.3779 3.94854 17.4709H1.95427C1.7778 17.4709 1.6288 17.3218 1.6288 17.1455V13.0424H17.3767C17.6928 13.0424 17.9489 12.7862 17.9489 12.4702C17.9489 12.1542 17.6928 11.898 17.3767 11.898H1.6288V10.8327H29.1431C29.3721 10.8327 29.6135 10.911 29.8067 11.0662L30.8424 11.898H20.047C19.7309 11.898 19.4748 12.1542 19.4748 12.4702C19.4748 12.7862 19.7309 13.0424 20.047 13.0424H32.2674L32.6295 13.3332C33.0194 13.6464 33.5096 13.8189 34.0098 13.8189H37.154V17.1455C37.154 17.3219 37.005 17.4709 36.8286 17.4709V17.4709Z" fill="#68B78A"/>
</svg>
