<svg width="41" height="41" viewBox="0 0 41 41" fill="none" xmlns="http://www.w3.org/2000/svg">
<path d="M40.9591 33.1991L40.2251 30.3927C40.0647 29.7788 39.554 29.3321 38.9242 29.2545L36.3071 28.9324C36.2423 28.9245 36.1821 28.8936 36.1377 28.8455L32.1567 24.5261C32.0981 24.4626 32.0601 24.3838 32.0469 24.2981L31.2269 18.9812C31.1771 18.6581 30.8756 18.4369 30.5517 18.4864C30.2286 18.5362 30.0071 18.8385 30.057 19.1616L30.877 24.4785C30.9261 24.7975 31.0677 25.0913 31.2863 25.3284L35.2672 29.6477C35.5014 29.9019 35.8194 30.0652 36.1626 30.1074L38.7797 30.4294C38.925 30.4473 39.0428 30.5504 39.0799 30.6921L39.7131 33.113L35.925 31.531C35.6507 31.4164 35.3871 31.2734 35.1416 31.1061L29.4702 27.2406C29.3123 27.1329 29.1955 26.9725 29.1418 26.7891L27.0523 19.6657C27.2432 19.1248 27.3423 18.5531 27.3423 17.9752C27.3423 17.9752 27.3414 13.6763 27.3395 13.64C27.559 13.7363 27.7689 13.8545 27.9635 13.9956L28.2892 14.2318C29.0102 14.7549 29.5016 15.5599 29.6374 16.4404C29.7463 17.2038 30.9353 17.0153 30.8073 16.2599C30.6237 15.0695 29.9592 13.981 28.9843 13.2736L28.6587 13.0374C28.0791 12.6168 27.4023 12.3398 26.6953 12.2283C26.3143 11.8601 25.7962 11.6329 25.2258 11.6329H23.6204V10.3852C23.6204 10.3833 23.6202 10.3814 23.6201 10.3795C23.8982 10.0712 24.1307 9.72067 24.3048 9.34315C24.8422 9.17498 25.3375 8.73774 25.6538 8.13249C25.9012 7.65883 26.0056 7.13794 25.9476 6.66572C25.8806 6.1205 25.5981 5.6804 25.1727 5.45808C25.0186 5.37761 24.8533 5.32863 24.6815 5.31106V5.30144V3.61315C24.6815 2.05867 23.4169 0.793945 21.8624 0.793945H19.4418C17.8873 0.793945 16.6226 2.05867 16.6226 3.61315V5.30152V5.3078C16.44 5.32243 16.2639 5.37252 16.1001 5.45808C15.6747 5.6804 15.3923 6.1205 15.3253 6.66572C15.2672 7.13794 15.3715 7.65891 15.6191 8.13249C15.9387 8.74426 16.4551 9.19 17.0032 9.35149C17.1704 9.71169 17.3903 10.0474 17.6525 10.3448V11.6329H16.0472C15.4767 11.6329 14.9586 11.8602 14.5777 12.2283C13.8708 12.3397 13.1939 12.6169 12.6142 13.0375L12.2886 13.2737C11.3136 13.981 10.6491 15.0696 10.4655 16.2601L9.22585 24.2983C9.21265 24.3838 9.17472 24.4626 9.11612 24.5262L5.13508 28.8456C5.09079 28.8936 5.0306 28.9246 4.96572 28.9325L2.34872 29.2545C1.71898 29.3321 1.20827 29.7788 1.04773 30.3927L0.313833 33.1992C0.228754 33.5245 0.313117 33.862 0.533844 34.107C0.385076 34.5005 0.306915 34.9188 0.306915 35.3439C0.306915 37.274 1.87721 38.8443 3.8073 38.8443H7.86722C7.71892 39.1678 7.67766 39.537 7.76234 39.8921C7.91174 40.5967 8.75235 41.0037 9.39752 40.6826L11.6661 39.6247C12.1708 39.3894 12.7082 39.2465 13.2635 39.2001L17.4822 38.8444H37.4657C39.3958 38.8444 40.9661 37.2741 40.9661 35.344C40.9661 34.9197 40.8873 34.5013 40.7385 34.1077C40.9597 33.8625 41.0443 33.5248 40.9591 33.1991ZM28.8035 28.2188L30.7236 29.5276C29.6099 29.3739 28.486 29.2957 27.3605 29.2957C27.3523 29.2957 27.3443 29.2966 27.3362 29.2969L27.1171 28.9348C26.3165 27.6117 25.8933 26.0951 25.8933 24.5487V23.2722C25.8933 22.5816 26.0285 21.8995 26.2873 21.2639L28.0057 27.1223C28.1365 27.568 28.4197 27.9573 28.8035 28.2188ZM18.8364 11.4884C19.3625 11.9276 20.0071 12.148 20.6521 12.148C21.2843 12.148 21.9161 11.9362 22.4365 11.5142V12.5303C22.4365 13.0052 22.05 13.3916 21.5751 13.3916H19.6977C19.2228 13.3916 18.8364 13.0052 18.8364 12.5303V11.4884ZM19.4418 1.97781H21.8624C22.7641 1.97781 23.4977 2.71147 23.4977 3.61315V3.63811H17.8065V3.61315C17.8065 2.71139 18.5401 1.97781 19.4418 1.97781ZM16.6684 7.58432C16.533 7.32519 16.4718 7.043 16.5004 6.81019C16.5164 6.49572 16.7465 6.42408 16.9564 6.54764C17.1398 6.63653 17.3561 6.62485 17.5289 6.51655C17.7017 6.40833 17.8065 6.21877 17.8065 6.01498V4.82198H23.4977V6.00019C23.4977 6.20136 23.5999 6.38877 23.769 6.49779C23.9382 6.60672 24.151 6.62238 24.3343 6.53921C24.5368 6.42447 24.7577 6.50693 24.7726 6.81011C24.8013 7.04292 24.74 7.32511 24.6046 7.58425C24.3908 7.9935 24.0591 8.22114 23.8419 8.23458C23.6067 8.24913 23.4024 8.40187 23.322 8.62348C23.1693 9.04434 22.9179 9.43005 22.595 9.7388L21.7958 10.5032C21.1546 11.1167 20.1498 11.1166 19.5085 10.5032L18.7093 9.7388C18.3866 9.43013 18.1352 9.04458 17.9825 8.62364C17.8995 8.39504 17.6852 8.24046 17.4421 8.23394C17.2232 8.22798 16.8871 8.00296 16.6684 7.58432ZM16.0472 12.8168H17.673C17.8129 13.8093 18.6673 14.5755 19.6977 14.5755H21.5751C22.6056 14.5755 23.46 13.8094 23.5998 12.8168H25.2257C25.7399 12.8168 26.1584 13.2352 26.1584 13.7494V17.9753C26.1584 18.6727 25.9708 19.3586 25.6158 19.9588C25.0229 20.9615 24.7094 22.1073 24.7094 23.2723V24.5488C24.7094 26.3112 25.1917 28.0398 26.1042 29.5478L26.3237 29.9104L25.5472 30.0216C22.2887 30.4885 18.9844 30.4886 15.7258 30.0216L14.9493 29.9104L15.1688 29.5477C16.0813 28.0398 16.5635 26.3112 16.5635 24.5487V23.2722C16.5635 22.1073 16.2501 20.9615 15.6571 19.9587C15.3022 19.3584 15.1146 18.6725 15.1146 17.9752V13.7493C15.1145 13.2352 15.5329 12.8168 16.0472 12.8168ZM14.1559 28.9348L13.9367 29.2969C13.9286 29.2966 13.9207 29.2957 13.9124 29.2957C12.7861 29.2957 11.6616 29.3751 10.5472 29.5289L12.4695 28.2187C12.8532 27.9572 13.1365 27.5678 13.2672 27.1222L14.9856 21.2638C15.2443 21.8994 15.3796 22.5815 15.3796 23.2721V24.5487C15.3797 26.0952 14.9565 27.6118 14.1559 28.9348ZM2.19303 30.6922C2.23009 30.5505 2.34793 30.4474 2.49335 30.4296L5.11035 30.1076C5.45345 30.0653 5.77142 29.9021 6.00567 29.6479L9.9867 25.3285C10.2054 25.0913 10.3468 24.7974 10.396 24.4786L11.6357 16.4405C11.7714 15.5601 12.2629 14.7551 12.9839 14.2319L13.3095 13.9957C13.5041 13.8545 13.714 13.7364 13.9336 13.6401C13.9317 13.6763 13.9308 17.9753 13.9308 17.9753C13.9308 18.5532 14.03 19.1249 14.2208 19.6658L12.1313 26.7891C12.0775 26.9725 11.9608 27.1329 11.8029 27.2406L6.13145 31.1061C5.88592 31.2734 5.62234 31.4164 5.34802 31.5309L1.56003 33.113L2.19303 30.6922ZM1.4907 35.3439C1.4907 34.9892 1.57307 34.642 1.72797 34.3258L5.34953 32.8132L7.34951 32.7052C8.9881 32.6167 10.6309 32.756 12.2315 33.119C12.3304 33.1367 12.8729 33.2778 12.9631 33.2699C13.2334 33.2699 13.4775 33.0836 13.5398 32.8088C13.6122 32.49 13.4123 32.173 13.0936 32.1006L12.4934 31.9645C10.9028 31.6037 9.27348 31.4504 7.6445 31.5073L8.06242 31.2224C9.90775 30.7464 11.8071 30.4973 13.7128 30.4811C13.7147 30.4851 13.7158 30.4893 13.7177 30.4933C13.8564 30.7865 14.1311 30.989 14.4521 31.035L15.5578 31.1934C17.2427 31.4348 18.9396 31.5555 20.6363 31.5555C22.3332 31.5555 24.0299 31.4348 25.7149 31.1934L26.8205 31.035C27.1416 30.989 27.4162 30.7864 27.555 30.4934C27.5569 30.4894 27.558 30.4852 27.56 30.4811C29.4655 30.4974 31.3648 30.7464 33.2101 31.2223L33.6283 31.5073C31.9994 31.4504 30.3701 31.6037 28.7794 31.9645L20.6364 33.8116L17.8954 33.1899C17.023 32.7001 15.9187 32.8666 15.2327 33.6065L14.1857 34.7357C14.0776 34.8522 13.9415 34.9421 13.7919 34.9958L11.2616 35.9028C10.7426 36.0889 10.2776 36.3767 9.87952 36.7582L8.93801 37.6605H3.80722C2.52993 37.6605 1.4907 36.6213 1.4907 35.3439ZM13.1644 38.0203C12.4698 38.0784 11.7974 38.2572 11.1657 38.5517L8.91074 39.6033C8.8818 39.4598 8.92847 39.3094 9.03462 39.2077L10.6987 37.613C10.9759 37.3473 11.2998 37.1469 11.6612 37.0173L14.1915 36.1102C14.519 35.9928 14.8172 35.7959 15.0538 35.5407L16.1008 34.4116C16.4402 34.0418 17.0016 33.9959 17.4084 34.2762L18.3459 34.8617C18.6238 35.0353 18.9233 35.173 19.2359 35.2709L19.2759 35.2835V37.505L13.1644 38.0203ZM37.4656 37.6605H20.4598V35.0656L29.0414 33.1191C30.642 32.756 32.2844 32.6167 33.9234 32.7053C33.9234 32.7053 35.8874 32.8096 35.9106 32.808L39.5454 34.3261C39.7002 34.6423 39.7822 34.9902 39.7822 35.344C39.7822 36.6213 38.743 37.6605 37.4656 37.6605Z" fill="#68B78A"/>
</svg>
