<svg width="30" height="30" viewBox="0 0 30 30" fill="none" xmlns="http://www.w3.org/2000/svg">
<path d="M27.5001 3.00001H25.0001V2.00001C25.0001 1.46957 24.7894 0.960863 24.4143 0.585789C24.0392 0.210715 23.5305 0 23.0001 0C22.4697 0 21.961 0.210715 21.5859 0.585789C21.2108 0.960863 21.0001 1.46957 21.0001 2.00001V3.00001H17.0001V2.00001C17.0001 1.46957 16.7894 0.960863 16.4143 0.585789C16.0392 0.210715 15.5305 0 15.0001 0C14.4696 0 13.9609 0.210715 13.5858 0.585789C13.2108 0.960863 13.0001 1.46957 13.0001 2.00001V3.00001H9.00004V2.00001C9.00004 1.46957 8.78932 0.960863 8.41425 0.585789C8.03917 0.210715 7.53046 0 7.00003 0C6.46959 0 5.96088 0.210715 5.58581 0.585789C5.21074 0.960863 5.00002 1.46957 5.00002 2.00001V3.00001H2.50001C1.83697 3.00001 1.20108 3.26341 0.732236 3.73225C0.263393 4.20109 0 4.83698 0 5.50002V25.5001C0 26.1632 0.263393 26.799 0.732236 27.2679C1.20108 27.7367 1.83697 28.0001 2.50001 28.0001H16.5001C16.6327 28.0001 16.7599 27.9474 16.8536 27.8537C16.9474 27.7599 17.0001 27.6327 17.0001 27.5001C17.0001 27.3675 16.9474 27.2403 16.8536 27.1466C16.7599 27.0528 16.6327 27.0001 16.5001 27.0001H2.50001C2.10255 26.9989 1.72171 26.8405 1.44066 26.5595C1.15961 26.2784 1.00119 25.8976 1 25.5001V10H29.0001V18.5001C29.0001 18.6327 29.0528 18.7599 29.1466 18.8536C29.2403 18.9474 29.3675 19.0001 29.5001 19.0001C29.6327 19.0001 29.7599 18.9474 29.8537 18.8536C29.9474 18.7599 30.0001 18.6327 30.0001 18.5001V5.50002C30.0001 4.83698 29.7367 4.20109 29.2679 3.73225C28.799 3.26341 28.1632 3.00001 27.5001 3.00001ZM22.0001 2.00001C22.0001 1.73479 22.1054 1.48044 22.293 1.2929C22.4805 1.10536 22.7349 1 23.0001 1C23.2653 1 23.5197 1.10536 23.7072 1.2929C23.8947 1.48044 24.0001 1.73479 24.0001 2.00001V5.00002C24.0001 5.26524 23.8947 5.51959 23.7072 5.70713C23.5197 5.89467 23.2653 6.00002 23.0001 6.00002C22.7349 6.00002 22.4805 5.89467 22.293 5.70713C22.1054 5.51959 22.0001 5.26524 22.0001 5.00002V2.00001ZM14.0001 2.00001C14.0001 1.73479 14.1054 1.48044 14.293 1.2929C14.4805 1.10536 14.7348 1 15.0001 1C15.2653 1 15.5196 1.10536 15.7072 1.2929C15.8947 1.48044 16.0001 1.73479 16.0001 2.00001V5.00002C16.0001 5.26524 15.8947 5.51959 15.7072 5.70713C15.5196 5.89467 15.2653 6.00002 15.0001 6.00002C14.7348 6.00002 14.4805 5.89467 14.293 5.70713C14.1054 5.51959 14.0001 5.26524 14.0001 5.00002V2.00001ZM6.00002 2.00001C6.00002 1.73479 6.10538 1.48044 6.29292 1.2929C6.48046 1.10536 6.73481 1 7.00003 1C7.26525 1 7.5196 1.10536 7.70714 1.2929C7.89468 1.48044 8.00003 1.73479 8.00003 2.00001V5.00002C8.00003 5.26524 7.89468 5.51959 7.70714 5.70713C7.5196 5.89467 7.26525 6.00002 7.00003 6.00002C6.73481 6.00002 6.48046 5.89467 6.29292 5.70713C6.10538 5.51959 6.00002 5.26524 6.00002 5.00002V2.00001ZM29.0001 9.00004H1V5.50002C1.00119 5.10256 1.15961 4.72172 1.44066 4.44067C1.72171 4.15962 2.10255 4.0012 2.50001 4.00002H5.00002V5.00002C5.00002 5.53046 5.21074 6.03917 5.58581 6.41424C5.96088 6.78931 6.46959 7.00003 7.00003 7.00003C7.53046 7.00003 8.03917 6.78931 8.41425 6.41424C8.78932 6.03917 9.00004 5.53046 9.00004 5.00002V4.00002H13.0001V5.00002C13.0001 5.53046 13.2108 6.03917 13.5858 6.41424C13.9609 6.78931 14.4696 7.00003 15.0001 7.00003C15.5305 7.00003 16.0392 6.78931 16.4143 6.41424C16.7894 6.03917 17.0001 5.53046 17.0001 5.00002V4.00002H21.0001V5.00002C21.0001 5.53046 21.2108 6.03917 21.5859 6.41424C21.961 6.78931 22.4697 7.00003 23.0001 7.00003C23.5305 7.00003 24.0392 6.78931 24.4143 6.41424C24.7894 6.03917 25.0001 5.53046 25.0001 5.00002V4.00002H27.5001C27.8976 4.0012 28.2784 4.15962 28.5595 4.44067C28.8405 4.72172 28.9989 5.10256 29.0001 5.50002V9.00004Z" fill="#C24BE7"/>
<path d="M14 13.4999C14 13.2347 13.8947 12.9803 13.7071 12.7928C13.5196 12.6052 13.2652 12.4999 13 12.4999H11C10.7348 12.4999 10.4804 12.6052 10.2929 12.7928C10.1054 12.9803 10 13.2347 10 13.4999V14.9999C10 15.2651 10.1054 15.5195 10.2929 15.707C10.4804 15.8945 10.7348 15.9999 11 15.9999H13C13.2652 15.9999 13.5196 15.8945 13.7071 15.707C13.8947 15.5195 14 15.2651 14 14.9999V13.4999ZM11 14.9999V13.4999H13V14.9999H11Z" fill="#C24BE7"/>
<path d="M8.00002 13.4999C8.00002 13.2347 7.89466 12.9803 7.70712 12.7928C7.51958 12.6052 7.26523 12.4999 7.00001 12.4999H5C4.73479 12.4999 4.48043 12.6052 4.29289 12.7928C4.10536 12.9803 4 13.2347 4 13.4999V14.9999C4 15.2651 4.10536 15.5195 4.29289 15.707C4.48043 15.8945 4.73479 15.9999 5 15.9999H7.00001C7.26523 15.9999 7.51958 15.8945 7.70712 15.707C7.89466 15.5195 8.00002 15.2651 8.00002 14.9999V13.4999ZM5 14.9999V13.4999H7.00001V14.9999H5Z" fill="#C24BE7"/>
<path d="M25 15.9999C25.2652 15.9999 25.5196 15.8945 25.7071 15.707C25.8947 15.5195 26 15.2651 26 14.9999V13.4999C26 13.2347 25.8947 12.9803 25.7071 12.7928C25.5196 12.6052 25.2652 12.4999 25 12.4999H23C22.7348 12.4999 22.4804 12.6052 22.2929 12.7928C22.1054 12.9803 22 13.2347 22 13.4999V14.9999C22 15.2651 22.1054 15.5195 22.2929 15.707C22.4804 15.8945 22.7348 15.9999 23 15.9999H25ZM23 13.4999H25V14.9999H23V13.4999Z" fill="#C24BE7"/>
<path d="M14 18C14 17.7348 13.8947 17.4804 13.7071 17.2929C13.5196 17.1054 13.2652 17 13 17H11C10.7348 17 10.4804 17.1054 10.2929 17.2929C10.1054 17.4804 10 17.7348 10 18V19.5C10 19.7652 10.1054 20.0196 10.2929 20.2071C10.4804 20.3947 10.7348 20.5 11 20.5H13C13.2652 20.5 13.5196 20.3947 13.7071 20.2071C13.8947 20.0196 14 19.7652 14 19.5V18ZM11 19.5V18H13V19.5H11Z" fill="#C24BE7"/>
<path d="M8.00002 18C8.00002 17.7348 7.89466 17.4804 7.70712 17.2929C7.51958 17.1054 7.26523 17 7.00001 17H5C4.73479 17 4.48043 17.1054 4.29289 17.2929C4.10536 17.4804 4 17.7348 4 18V19.5C4 19.7652 4.10536 20.0196 4.29289 20.2071C4.48043 20.3947 4.73479 20.5 5 20.5H7.00001C7.26523 20.5 7.51958 20.3947 7.70712 20.2071C7.89466 20.0196 8.00002 19.7652 8.00002 19.5V18ZM5 19.5V18H7.00001V19.5H5Z" fill="#C24BE7"/>
<path d="M13 21.5H11C10.7348 21.5 10.4804 21.6054 10.2929 21.7929C10.1054 21.9804 10 22.2348 10 22.5V24C10 24.2652 10.1054 24.5196 10.2929 24.7071C10.4804 24.8947 10.7348 25 11 25H13C13.2652 25 13.5196 24.8947 13.7071 24.7071C13.8947 24.5196 14 24.2652 14 24V22.5C14 22.2348 13.8947 21.9804 13.7071 21.7929C13.5196 21.6054 13.2652 21.5 13 21.5ZM11 24V22.5H13V24H11Z" fill="#C24BE7"/>
<path d="M17 15.9999H19C19.2652 15.9999 19.5196 15.8945 19.7071 15.707C19.8947 15.5195 20 15.2651 20 14.9999V13.4999C20 13.2347 19.8947 12.9803 19.7071 12.7928C19.5196 12.6052 19.2652 12.4999 19 12.4999H17C16.7348 12.4999 16.4804 12.6052 16.2929 12.7928C16.1054 12.9803 16 13.2347 16 13.4999V14.9999C16 15.2651 16.1054 15.5195 16.2929 15.707C16.4804 15.8945 16.7348 15.9999 17 15.9999ZM17 13.4999H19V14.9999H17V13.4999Z" fill="#C24BE7"/>
<path d="M16 19.5C16 19.7652 16.1054 20.0196 16.2929 20.2071C16.4804 20.3947 16.7348 20.5 17 20.5C17.1326 20.5 17.2598 20.4473 17.3536 20.3536C17.4473 20.2598 17.5 20.1326 17.5 20C17.5 19.8674 17.4473 19.7402 17.3536 19.6465C17.2598 19.5527 17.1326 19.5 17 19.5V18H19C19.1326 18 19.2598 17.9473 19.3536 17.8536C19.4473 17.7598 19.5 17.6326 19.5 17.5C19.5 17.3674 19.4473 17.2402 19.3536 17.1464C19.2598 17.0527 19.1326 17 19 17H17C16.7348 17 16.4804 17.1054 16.2929 17.2929C16.1054 17.4804 16 17.7348 16 18V19.5Z" fill="#C24BE7"/>
<path d="M7.00001 21.5H5C4.73479 21.5 4.48043 21.6054 4.29289 21.7929C4.10536 21.9804 4 22.2348 4 22.5V24C4 24.2652 4.10536 24.5196 4.29289 24.7071C4.48043 24.8947 4.73479 25 5 25H7.00001C7.26523 25 7.51958 24.8947 7.70712 24.7071C7.89466 24.5196 8.00002 24.2652 8.00002 24V22.5C8.00002 22.2348 7.89466 21.9804 7.70712 21.7929C7.51958 21.6054 7.26523 21.5 7.00001 21.5ZM5 24V22.5H7.00001V24H5Z" fill="#C24BE7"/>
<path d="M23.5 17C22.2144 17 20.9577 17.3812 19.8888 18.0955C18.8199 18.8097 17.9868 19.8248 17.4948 21.0126C17.0028 22.2003 16.8741 23.5072 17.1249 24.7681C17.3757 26.029 17.9948 27.1872 18.9038 28.0962C19.8129 29.0053 20.9711 29.6243 22.2319 29.8752C23.4928 30.126 24.7998 29.9972 25.9875 29.5053C27.1752 29.0133 28.1904 28.1802 28.9046 27.1112C29.6188 26.0423 30 24.7856 30 23.5C29.9981 21.7767 29.3126 20.1246 28.094 18.906C26.8755 17.6874 25.2233 17.002 23.5 17ZM23.5 29C22.4122 29 21.3489 28.6775 20.4444 28.0731C19.5399 27.4688 18.835 26.6098 18.4187 25.6048C18.0024 24.5998 17.8935 23.4939 18.1057 22.427C18.3179 21.3601 18.8417 20.3801 19.6109 19.6109C20.3801 18.8417 21.3601 18.3179 22.427 18.1057C23.4939 17.8935 24.5998 18.0024 25.6048 18.4187C26.6098 18.835 27.4688 19.5399 28.0731 20.4444C28.6775 21.3489 29 22.4122 29 23.5C28.9983 24.9582 28.4183 26.3561 27.3872 27.3872C26.3561 28.4183 24.9582 28.9983 23.5 29Z" fill="#C24BE7"/>
<path d="M26.3867 21.404L22.4977 25.293L20.7302 23.525C20.6359 23.434 20.5096 23.3836 20.3785 23.3847C20.2474 23.3858 20.122 23.4384 20.0293 23.5311C19.9366 23.6238 19.884 23.7492 19.8828 23.8803C19.8817 24.0114 19.9321 24.1377 20.0232 24.232L22.1442 26.3535C22.2379 26.4473 22.3651 26.4999 22.4977 26.4999C22.6303 26.4999 22.7574 26.4473 22.8512 26.3535L27.0937 22.111C27.1848 22.0167 27.2352 21.8904 27.234 21.7593C27.2329 21.6282 27.1803 21.5028 27.0876 21.4101C26.9949 21.3174 26.8695 21.2648 26.7384 21.2637C26.6073 21.2626 26.481 21.3129 26.3867 21.404Z" fill="#C24BE7"/>
</svg>
