<svg width="28" height="30" viewBox="0 0 28 30" fill="none" xmlns="http://www.w3.org/2000/svg">
<path d="M13.763 20.4904C14.8191 20.4904 15.6784 19.6312 15.6784 18.5751C15.6784 17.5189 14.8192 16.6597 13.763 16.6597C12.7069 16.6597 11.8477 17.5189 11.8477 18.5751C11.8477 19.6312 12.7069 20.4904 13.763 20.4904ZM13.763 17.5386C14.3345 17.5386 14.7994 18.0036 14.7994 18.5751C14.7994 19.1465 14.3345 19.6114 13.763 19.6114C13.1915 19.6114 12.7266 19.1465 12.7266 18.5751C12.7266 18.0036 13.1915 17.5386 13.763 17.5386Z" fill="#C24BE7"/>
<path d="M22.2601 6.34848C24.0104 6.34848 25.4344 4.92454 25.4344 3.1743C25.4344 1.42394 24.0104 0 22.2601 0C20.5098 0 19.0859 1.42394 19.0859 3.17424C19.0859 4.92449 20.5099 6.34848 22.2601 6.34848ZM22.2601 0.87896C23.5257 0.87896 24.5554 1.90862 24.5554 3.17424C24.5554 4.43986 23.5257 5.46946 22.2601 5.46946C20.9945 5.46946 19.9649 4.43986 19.9649 3.17424C19.9649 1.90862 20.9945 0.87896 22.2601 0.87896Z" fill="#C24BE7"/>
<path d="M26.9625 11.2343C26.7197 11.2343 26.523 11.431 26.523 11.6737V17.6872C26.523 17.8437 26.3957 17.971 26.2392 17.971H25.167V10.2137C25.167 9.97092 24.9703 9.77422 24.7275 9.77422C24.4848 9.77422 24.2881 9.97092 24.2881 10.2137V28.8373C24.2881 28.9937 24.1608 29.1211 24.0043 29.1211H22.983C22.8265 29.1211 22.6992 28.9937 22.6992 28.8373V21.8459C22.6992 21.6032 22.5025 21.4065 22.2597 21.4065C22.0169 21.4065 21.8202 21.6032 21.8202 21.8459V28.8373C21.8202 28.9937 21.6929 29.1211 21.5365 29.1211H20.5151C20.3587 29.1211 20.2314 28.9937 20.2314 28.8373V10.2137C20.2314 9.97092 20.0347 9.77422 19.7919 9.77422C19.5492 9.77422 19.3525 9.97092 19.3525 10.2137V17.971H18.2802C18.1238 17.971 17.9965 17.8438 17.9964 17.6876V10.2123C17.9964 8.76899 19.1707 7.59478 20.614 7.59478H23.9056C25.349 7.59478 26.5232 8.76899 26.5232 10.2123C26.5232 10.4551 26.7199 10.6518 26.9626 10.6518C27.2054 10.6518 27.4021 10.4551 27.4021 10.2123C27.4021 8.28437 25.8335 6.71582 23.9056 6.71582H20.6137C18.6857 6.71582 17.1172 8.28437 17.1172 10.2123V17.6877C17.1175 18.3287 17.6391 18.85 18.2799 18.85H19.3522V28.8373C19.3522 29.4784 19.8738 30 20.5149 30H21.5362C21.8096 30 22.0608 29.9046 22.2595 29.7461C22.4583 29.9046 22.7095 30 22.9829 30H24.0042C24.6453 30 25.1669 29.4785 25.1669 28.8373V18.8499H26.2392C26.8803 18.8499 27.4019 18.3283 27.4019 17.6872V11.6737C27.402 11.431 27.2052 11.2343 26.9625 11.2343Z" fill="#C24BE7"/>
<path d="M4.56866 9.03495C6.31896 9.03495 7.74296 7.61101 7.74296 5.86077C7.74296 4.11046 6.31896 2.68652 4.56866 2.68652C2.81841 2.68652 1.39453 4.11046 1.39453 5.86077C1.39459 7.61101 2.81841 9.03495 4.56866 9.03495ZM4.56866 3.56548C5.83433 3.56548 6.86399 4.59515 6.86399 5.86077C6.86399 7.12639 5.83433 8.15599 4.56866 8.15599C3.3031 8.15599 2.27349 7.12639 2.27349 5.86077C2.27355 4.59515 3.30315 3.56548 4.56866 3.56548Z" fill="#C24BE7"/>
<path d="M6.01415 9.44714H3.12379C1.40132 9.44714 0 10.8485 0 12.5709V19.1349C0.00017578 19.7271 0.482165 20.2089 1.07455 20.2089H1.08785L0.783629 22.9777C0.770035 23.1019 0.80982 23.226 0.89314 23.319C0.976519 23.412 1.09552 23.4652 1.22044 23.4652H1.96253V28.9251C1.96253 29.5176 2.44464 29.9996 3.03707 29.9996H3.93391C4.17162 29.9996 4.39082 29.9211 4.569 29.7899C4.74718 29.9211 4.96632 29.9996 5.20415 29.9996H6.10098C6.69348 29.9996 7.17553 29.5176 7.17553 28.9251V26.4984C7.17553 26.2557 6.97883 26.059 6.73608 26.059C6.49333 26.059 6.29663 26.2557 6.29663 26.4984V28.9251C6.29663 29.0329 6.20891 29.1207 6.10104 29.1207H5.20421C5.09634 29.1207 5.00857 29.0329 5.00857 28.9251V24.2311C5.00857 23.9883 4.81187 23.7916 4.56912 23.7916C4.32636 23.7916 4.12967 23.9883 4.12967 24.2311V28.9251C4.12967 29.0329 4.04195 29.1207 3.93408 29.1207H3.03702C2.92915 29.1207 2.84143 29.0329 2.84143 28.9251V23.4652H6.29645V25.0917C6.29645 25.3344 6.49315 25.5312 6.7359 25.5312C6.97866 25.5312 7.17535 25.3344 7.17535 25.0917V23.4652H7.91738C8.0423 23.4652 8.16131 23.412 8.24463 23.319C8.328 23.226 8.36779 23.1019 8.3542 22.9777L8.04998 20.2089H8.06328C8.65578 20.2089 9.13782 19.727 9.13782 19.1345V12.5709C9.13782 10.8485 7.7365 9.44714 6.01415 9.44714ZM8.25892 19.1344C8.25886 19.2422 8.17115 19.3299 8.06328 19.3299H7.95342L7.14887 12.0083C7.12233 11.7672 6.90518 11.5937 6.66401 11.6195C6.42278 11.646 6.2487 11.8631 6.27518 12.1043L7.42701 22.5861H7.0134H6.73596H2.40198H2.04104H1.71087L2.8627 12.1043C2.88918 11.8631 2.7151 11.646 2.47387 11.6195C2.23218 11.5937 2.0155 11.7672 1.98901 12.0083L1.18447 19.3299H1.0746C0.966792 19.3299 0.879078 19.2423 0.879019 19.1346V12.5709C0.879019 11.3331 1.88606 10.326 3.12385 10.326H6.01415C7.25188 10.326 8.25892 11.3331 8.25892 12.5709V19.1344Z" fill="#C24BE7"/>
<path d="M17.0941 19.0287C16.7796 19.0386 16.4877 19.1704 16.2724 19.3997L14.6335 21.1451H12.9369L11.2978 19.3997C10.8532 18.9264 10.1063 18.9029 9.63268 19.3474C9.15936 19.792 9.1358 20.5389 9.58029 21.0125L11.4805 23.036V28.8513C11.4805 29.4846 11.9957 29.9998 12.629 29.9998H14.9412C15.5745 29.9998 16.0896 29.4846 16.0896 28.8513V26.4397C16.0896 26.1969 15.8929 26.0002 15.6501 26.0002C15.4074 26.0002 15.2107 26.1969 15.2107 26.4397V28.8513C15.2107 28.9999 15.0898 29.1208 14.9412 29.1208H14.2039V25.4553C14.2039 25.2126 14.0072 25.0159 13.7645 25.0159C13.5218 25.0159 13.325 25.2126 13.325 25.4553V29.1208H12.6291C12.4805 29.1208 12.3596 28.9999 12.3596 28.8513V22.862C12.3596 22.7503 12.317 22.6427 12.2405 22.5612L10.2212 20.4109C10.1084 20.2907 10.1144 20.101 10.2345 19.9882C10.3547 19.8753 10.5443 19.8814 10.6572 20.0015L12.4263 21.8855C12.5094 21.974 12.6253 22.0241 12.7467 22.0241H14.8236C14.945 22.0241 15.0609 21.9739 15.144 21.8855L16.9131 20.0015C17.0261 19.8813 17.2157 19.8754 17.3357 19.9881C17.456 20.101 17.4619 20.2907 17.3491 20.4108L15.3297 22.5611C15.2531 22.6426 15.2106 22.7502 15.2106 22.862V24.9747C15.2106 25.2174 15.4073 25.4141 15.65 25.4141C15.8928 25.4141 16.0895 25.2174 16.0895 24.9747V23.036L17.9898 21.0125C18.4343 20.539 18.4108 19.7921 17.9374 19.3474C17.7081 19.132 17.4089 19.0195 17.0941 19.0287Z" fill="#C24BE7"/>
</svg>
