<svg width="33" height="30" viewBox="0 0 33 30" fill="none" xmlns="http://www.w3.org/2000/svg">
<path d="M29.6089 2.92123C27.9183 1.12521 25.5825 0.0755925 23.117 0.0039252C20.6515 -0.0677421 18.2587 0.844431 16.4666 2.53922L16.0599 2.92338C12.5379 -0.812157 6.65446 -0.98523 2.91892 2.53681C-0.816615 6.05884 -0.989689 11.9423 2.53235 15.6778L3.44801 16.6481C3.06138 17.5433 3.18494 18.5771 3.77164 19.3559C4.35834 20.1347 5.31791 20.5388 6.28501 20.4142C6.12127 21.2664 6.37717 22.1454 6.97277 22.7765C7.56836 23.4077 8.43104 23.7141 9.29132 23.6C9.12757 24.452 9.38341 25.3309 9.97891 25.9619C10.5744 26.593 11.437 26.8993 12.2971 26.7852C12.084 27.9425 12.6387 29.1056 13.672 29.6684C14.7054 30.2312 15.9835 30.0663 16.84 29.2595C19.8978 26.3727 19.8019 26.5168 20.0907 26.0303C20.985 26.4704 22.0489 26.3831 22.8595 25.8031C23.6702 25.2232 24.0964 24.2445 23.9687 23.256C24.8207 23.4157 25.6978 23.1578 26.3277 22.5623C26.9577 21.9667 27.2645 21.1056 27.1529 20.2459C28.3169 20.4598 29.4857 19.8967 30.044 18.8531C30.6023 17.8096 30.4221 16.5248 29.5982 15.6751C32.9908 12.1023 32.9956 6.49973 29.6089 2.92123ZM4.74783 18.8604C4.12185 18.1953 4.15204 17.149 4.81534 16.5211L7.60144 13.8904C8.26767 13.275 9.30511 13.3107 9.92749 13.9704C10.5499 14.6301 10.5252 15.6679 9.87211 16.2972L7.08601 18.9279C6.42137 19.554 5.37524 19.5238 4.74783 18.8604ZM7.75414 22.0462C7.12756 21.3813 7.15777 20.3346 7.82165 19.7069L10.6077 17.0762C11.2722 16.4493 12.319 16.4798 12.9459 17.1443C13.5728 17.8087 13.5423 18.8555 12.8779 19.4824L10.0918 22.1137C9.42637 22.7385 8.38087 22.7071 7.75414 22.0435V22.0462ZM10.7599 25.2314C10.1341 24.5663 10.1646 23.5203 10.828 22.8927L13.6141 20.262C14.2828 19.6749 15.2961 19.7221 15.9073 20.3688C16.5185 21.0155 16.5085 22.0299 15.8847 22.6645L13.0986 25.2952C12.4344 25.9226 11.3874 25.8928 10.7599 25.2288V25.2314ZM16.1044 28.4847C15.6746 28.8903 15.061 29.0358 14.4948 28.8664C13.9286 28.697 13.4958 28.2383 13.3595 27.6633C13.2231 27.0882 13.4039 26.4841 13.8337 26.0785L16.6198 23.4473C17.286 22.8319 18.3235 22.8676 18.9459 23.5272C19.5683 24.1869 19.5436 25.2247 18.8905 25.854L16.1044 28.4847ZM28.7774 18.7779C28.4589 19.0799 28.0333 19.2426 27.5945 19.2299C27.1558 19.2172 26.7402 19.0303 26.4397 18.7104L19.2998 11.145C19.0967 10.9298 18.7575 10.9199 18.5422 11.1231C18.327 11.3262 18.3171 11.6654 18.5203 11.8807L25.6618 19.4455C26.0675 19.8752 26.2131 20.4887 26.0438 21.055C25.8745 21.6212 25.416 22.0541 24.841 22.1906C24.266 22.327 23.6618 22.1464 23.2561 21.7167L16.1151 14.1508C15.9837 14.0115 15.788 13.953 15.6017 13.9972C15.4154 14.0413 15.2668 14.1815 15.2119 14.365C15.157 14.5484 15.2041 14.7472 15.3355 14.8864L22.4744 22.4502C23.0381 23.047 23.0781 23.9672 22.5684 24.6107C22.0587 25.2542 21.1538 25.426 20.4437 25.0139C20.5549 24.2485 20.3331 23.4721 19.8343 22.881C19.3356 22.2899 18.6076 21.9406 17.8345 21.9213C17.2451 21.9058 17.4594 22.1287 17.4744 21.5393C17.4957 20.8166 17.2289 20.115 16.7327 19.5891C16.2364 19.0632 15.5515 18.7561 14.8287 18.7355C14.2393 18.7168 14.451 18.9499 14.4686 18.3535C14.4897 17.6308 14.2227 16.9293 13.7264 16.4034C13.2301 15.8776 12.5451 15.5705 11.8224 15.5497C11.2293 15.5331 11.4446 15.7689 11.4623 15.1677C11.4912 14.0671 10.8559 13.0569 9.85124 12.6063C8.84662 12.1557 7.66963 12.353 6.86687 13.1066C3.03599 16.7226 4.35778 15.4763 4.0722 15.7458L3.31246 14.9422C0.196847 11.6373 0.350251 6.43252 3.65509 3.31691C6.95994 0.201305 12.1647 0.354708 15.2804 3.65955L10.8922 7.80333C10.4761 8.20232 10.2312 8.7473 10.2091 9.32336C10.1555 11.5238 13.4287 12.9094 15.4288 11.0164L19.4279 7.24236C19.5312 7.1447 19.669 7.0921 19.8111 7.09612C19.9532 7.10014 20.0879 7.16045 20.1855 7.26379C21.2367 8.37769 27.8365 15.3719 28.8449 16.4397C29.1462 16.7586 29.3083 17.1842 29.2956 17.6228C29.283 18.0613 29.0965 18.4768 28.7774 18.7779ZM28.869 14.9041L20.9645 6.52816C20.6719 6.21815 20.2681 6.03711 19.8419 6.02485C19.4158 6.01259 19.0022 6.17012 18.6922 6.46279L14.6926 10.2379C14.2678 10.6389 13.7009 10.8542 13.117 10.8362C12.5332 10.8182 11.9805 10.5684 11.5813 10.142C11.3803 9.92893 11.2723 9.64459 11.2813 9.35177C11.2902 9.05896 11.4153 8.78173 11.629 8.58129L17.2012 3.31825C20.4283 0.26324 25.4984 0.323731 28.6517 3.45487C31.805 6.58601 31.9012 11.6556 28.869 14.9041Z" fill="#C24BE7"/>
</svg>
