<svg width="16" height="30" viewBox="0 0 16 30" fill="none" xmlns="http://www.w3.org/2000/svg">
<path d="M8.00532 14.5332C7.999 14.5332 7.99268 14.5332 7.99268 14.5332H5.93295C5.6739 14.5332 5.45908 14.748 5.45908 15.0071V20.2638H4.80199C4.54294 20.2638 4.32812 20.4786 4.32812 20.7377C4.32812 20.9967 4.54294 21.2115 4.80199 21.2115H5.45908V22.0266H4.80199C4.54294 22.0266 4.32812 22.2414 4.32812 22.5005C4.32812 22.7595 4.54294 22.9743 4.80199 22.9743H5.45908V25.4384C5.45908 25.6975 5.6739 25.9123 5.93295 25.9123C6.19199 25.9123 6.40681 25.6975 6.40681 25.4384V22.9743H9.41428C9.67332 22.9743 9.88814 22.7595 9.88814 22.5005C9.88814 22.2414 9.67332 22.0266 9.41428 22.0266H6.40681V21.2115H7.99268C9.74282 21.2115 11.1644 19.7268 11.1644 17.8945C11.1644 16.0685 9.78073 14.5901 8.00532 14.5332ZM7.99268 20.2638H6.40681V15.4809H7.98636C9.23737 15.5252 10.2167 16.5866 10.2167 17.8945C10.2167 19.2023 9.21841 20.2638 7.99268 20.2638Z" fill="#C24BE7"/>
<path d="M15.309 9.06148L12.5543 6.83748C12.7059 6.42679 12.807 5.99716 12.8449 5.54857C12.8449 5.54225 12.8449 5.54225 12.8449 5.53593C13.0155 2.99601 11.2654 0.677231 8.77598 0.140184C7.54393 -0.144135 6.24238 0.00750272 5.12406 0.563504C3.9931 1.12582 3.12119 2.07356 2.65996 3.22347C2.56519 3.46356 2.67892 3.74156 2.92533 3.83633C3.16542 3.9311 3.44342 3.81738 3.53819 3.57097C4.3027 1.65656 6.46352 0.576142 8.56117 1.06264H8.56748C10.5956 1.4986 12.0235 3.39406 11.8909 5.46643C11.8656 5.71916 11.8214 5.95925 11.7582 6.19934L8.01148 3.17292C7.83457 3.03392 7.58816 3.03392 7.41757 3.17292L0.17691 9.05517C0.0631822 9.14362 0 9.28262 0 9.42162V29.5261C0 29.7852 0.214819 30 0.473865 30H15.0057C15.2648 30 15.4796 29.7852 15.4796 29.5261V9.42162C15.4859 9.28894 15.4227 9.15626 15.309 9.06148ZM14.5445 29.0649H14.5382H0.954049V9.6554L7.72084 4.15224L11.3854 7.10916C11.0505 7.70939 10.5704 8.21485 9.98908 8.59394C9.86903 8.39176 9.72372 8.20221 9.54681 8.03793C9.03503 7.53248 8.3653 7.26711 7.66398 7.27343C6.98161 7.28607 6.34348 7.55775 5.88225 8.05057C5.40206 8.55603 5.1367 9.24471 5.16197 9.93339C5.18093 10.6031 5.45893 11.2286 5.94543 11.6835C6.41298 12.17 7.03848 12.4417 7.72084 12.4544C7.73348 12.4544 7.74612 12.4544 7.75875 12.4544C8.45376 12.4544 9.10453 12.1827 9.60999 11.6835C9.61631 11.6772 9.6163 11.6772 9.62262 11.6709C10.1028 11.1654 10.3682 10.4768 10.3429 9.78808C10.3429 9.6933 10.3303 9.59853 10.3176 9.50376C11.0632 9.06148 11.695 8.4423 12.1373 7.70307L14.5445 9.64276V29.0649ZM7.91671 10.2493C7.92935 10.2493 7.93566 10.2493 7.9483 10.2493C8.44744 10.2177 8.93394 10.1166 9.38885 9.95235C9.3699 10.3504 9.20562 10.7358 8.93394 11.0264C8.60539 11.3487 8.18207 11.5193 7.73348 11.5129C7.30384 11.5066 6.91211 11.336 6.62148 11.0264C6.61516 11.0201 6.60884 11.0138 6.60252 11.0075C6.29925 10.7232 6.12234 10.3378 6.1097 9.91444C6.09707 9.47217 6.26766 9.03621 6.57093 8.71398C6.86157 8.41071 7.2533 8.24012 7.68294 8.22748C7.68925 8.22748 7.70189 8.22748 7.70821 8.22748C8.15048 8.22748 8.56748 8.40439 8.88971 8.7203C8.89603 8.72662 8.89603 8.72662 8.90235 8.73294C8.99712 8.82139 9.07926 8.92248 9.14876 9.02989C8.75071 9.18153 8.33371 9.26998 7.89144 9.30157C7.62607 9.32053 7.43021 9.54167 7.44284 9.80703C7.45548 10.0598 7.66398 10.2493 7.91671 10.2493Z" fill="#C24BE7"/>
</svg>
