<svg width="25" height="30" viewBox="0 0 25 30" fill="none" xmlns="http://www.w3.org/2000/svg">
<path d="M20.8595 8.90625H12.4219C12.0983 8.90625 11.8359 9.16857 11.8359 9.49219C11.8359 9.8158 12.0983 10.0781 12.4219 10.0781H20.8595C21.1831 10.0781 21.4454 9.8158 21.4454 9.49219C21.4454 9.16857 21.1831 8.90625 20.8595 8.90625Z" fill="#C24BE7"/>
<path d="M18.8088 11.8904C18.6998 11.7814 18.5486 11.7188 18.3945 11.7188C18.2404 11.7188 18.0893 11.7814 17.9803 11.8904C17.8713 11.9994 17.8086 12.1506 17.8086 12.3047C17.8086 12.4588 17.8713 12.61 17.9803 12.7189C18.0893 12.8279 18.2404 12.8906 18.3945 12.8906C18.5486 12.8906 18.6998 12.8279 18.8088 12.7189C18.9178 12.61 18.9805 12.4588 18.9805 12.3047C18.9805 12.1506 18.9178 11.9994 18.8088 11.8904Z" fill="#C24BE7"/>
<path d="M12.8361 2.69121C12.7271 2.58223 12.576 2.51953 12.4219 2.51953C12.2678 2.51953 12.1166 2.58223 12.0076 2.69121C11.8986 2.80019 11.8359 2.95137 11.8359 3.10547C11.8359 3.25957 11.8986 3.41074 12.0076 3.51972C12.1166 3.62871 12.2678 3.6914 12.4219 3.6914C12.576 3.6914 12.7271 3.62871 12.8361 3.51972C12.9451 3.41074 13.0078 3.25957 13.0078 3.10547C13.0078 2.95137 12.9451 2.80019 12.8361 2.69121Z" fill="#C24BE7"/>
<path d="M15.9303 11.7188H12.4219C12.0983 11.7188 11.8359 11.9811 11.8359 12.3047C11.8359 12.6283 12.0983 12.8906 12.4219 12.8906H15.9303C16.2539 12.8906 16.5162 12.6283 16.5162 12.3047C16.5162 11.9811 16.2539 11.7188 15.9303 11.7188Z" fill="#C24BE7"/>
<path d="M20.8595 15.2344H12.4219C12.0983 15.2344 11.8359 15.4967 11.8359 15.8203C11.8359 16.1439 12.0983 16.4062 12.4219 16.4062H20.8595C21.1831 16.4062 21.4454 16.1439 21.4454 15.8203C21.4454 15.4967 21.1831 15.2344 20.8595 15.2344Z" fill="#C24BE7"/>
<path d="M18.8088 18.2186C18.6998 18.1096 18.5486 18.0469 18.3945 18.0469C18.2404 18.0469 18.0893 18.1096 17.9803 18.2186C17.8713 18.3275 17.8086 18.4787 17.8086 18.6328C17.8086 18.7869 17.8713 18.9381 17.9803 19.0471C18.0893 19.1561 18.2404 19.2187 18.3945 19.2187C18.5486 19.2187 18.6998 19.1561 18.8088 19.0471C18.9178 18.9381 18.9805 18.7869 18.9805 18.6328C18.9805 18.4787 18.9178 18.3275 18.8088 18.2186Z" fill="#C24BE7"/>
<path d="M15.9303 18.0469H12.4219C12.0983 18.0469 11.8359 18.3092 11.8359 18.6328C11.8359 18.9564 12.0983 19.2187 12.4219 19.2187H15.9303C16.2539 19.2187 16.5162 18.9564 16.5162 18.6328C16.5162 18.3092 16.2539 18.0469 15.9303 18.0469Z" fill="#C24BE7"/>
<path d="M20.8595 21.5625H12.4219C12.0983 21.5625 11.8359 21.8248 11.8359 22.1484C11.8359 22.472 12.0983 22.7344 12.4219 22.7344H20.8595C21.1831 22.7344 21.4454 22.472 21.4454 22.1484C21.4454 21.8248 21.1831 21.5625 20.8595 21.5625Z" fill="#C24BE7"/>
<path d="M18.8088 24.5467C18.6998 24.4377 18.5486 24.375 18.3945 24.375C18.2404 24.375 18.0893 24.4377 17.9803 24.5467C17.8713 24.6557 17.8086 24.8068 17.8086 24.9609C17.8086 25.115 17.8713 25.2662 17.9803 25.3752C18.0893 25.4842 18.2404 25.5469 18.3945 25.5469C18.5486 25.5469 18.6998 25.4842 18.8088 25.3752C18.9178 25.2662 18.9805 25.115 18.9805 24.9609C18.9805 24.8068 18.9178 24.6557 18.8088 24.5467Z" fill="#C24BE7"/>
<path d="M15.9303 24.375H12.4219C12.0983 24.375 11.8359 24.6373 11.8359 24.9609C11.8359 25.2845 12.0983 25.5469 12.4219 25.5469H15.9303C16.2539 25.5469 16.5162 25.2845 16.5162 24.9609C16.5162 24.6373 16.2539 24.375 15.9303 24.375Z" fill="#C24BE7"/>
<path d="M21.9868 2.28521H17.5115C16.8645 1.66875 15.99 1.28906 15.028 1.28906H14.5147C14.1223 0.512226 13.3161 0 12.4218 0C11.5275 0 10.7213 0.512226 10.3289 1.28906H9.81437C8.85233 1.28906 7.97788 1.66875 7.33094 2.28521H2.85691C1.28162 2.28521 0 3.56683 0 5.14212V27.1431C0 28.7184 1.28162 30 2.85691 30H21.9867C23.562 30 24.8436 28.7184 24.8436 27.1431V5.14212C24.8437 3.56683 23.5621 2.28521 21.9868 2.28521ZM9.81443 2.46093H10.7277C10.9912 2.46093 11.2223 2.28498 11.2925 2.03097C11.4322 1.52513 11.8966 1.17187 12.4219 1.17187C12.9471 1.17187 13.4115 1.52513 13.5512 2.03097C13.6213 2.28498 13.8525 2.46093 14.116 2.46093H15.028C16.2998 2.46093 17.3466 3.44238 17.4511 4.68755H7.39135C7.49583 3.44238 8.54272 2.46093 9.81443 2.46093ZM23.6718 27.1432C23.6718 28.0723 22.9159 28.8282 21.9868 28.8282H2.85691C1.92779 28.8282 1.17187 28.0723 1.17187 27.1432V5.14212C1.17187 4.213 1.92779 3.45708 2.85691 3.45708H6.51005C6.31809 3.89724 6.21093 4.38251 6.21093 4.89263V5.27349C6.21093 5.5971 6.47325 5.85942 6.79686 5.85942H18.0456C18.3692 5.85942 18.6315 5.5971 18.6315 5.27349V4.89263C18.6315 4.38257 18.5244 3.89724 18.3324 3.45708H21.9868C22.9159 3.45708 23.6718 4.213 23.6718 5.14212V27.1432Z" fill="#C24BE7"/>
<path d="M8.69621 8.76549C8.4674 8.53668 8.09638 8.53668 7.86758 8.76543L5.36199 11.2711L4.59014 10.4992C4.36133 10.2704 3.99032 10.2704 3.76145 10.4992C3.53264 10.728 3.53264 11.099 3.76145 11.3278L4.94768 12.5141C5.06211 12.6285 5.21205 12.6857 5.36199 12.6857C5.51193 12.6857 5.66193 12.6285 5.77631 12.5141L8.69621 9.59418C8.92501 9.36537 8.92501 8.99435 8.69621 8.76549Z" fill="#C24BE7"/>
<path d="M7.26562 21.5625H4.45312C4.12951 21.5625 3.86719 21.8248 3.86719 22.1484V24.9609C3.86719 25.2845 4.12951 25.5469 4.45312 25.5469H7.26562C7.58924 25.5469 7.85156 25.2845 7.85156 24.9609V22.1484C7.85156 21.8248 7.58924 21.5625 7.26562 21.5625ZM6.67969 24.375H5.03906V22.7344H6.67969V24.375Z" fill="#C24BE7"/>
<path d="M7.26562 15.2344H4.45312C4.12951 15.2344 3.86719 15.4967 3.86719 15.8203V18.6328C3.86719 18.9564 4.12951 19.2187 4.45312 19.2187H7.26562C7.58924 19.2187 7.85156 18.9564 7.85156 18.6328V15.8203C7.85156 15.4967 7.58924 15.2344 7.26562 15.2344ZM6.67969 18.0469H5.03906V16.4062H6.67969V18.0469Z" fill="#C24BE7"/>
</svg>
