<svg width="31" height="30" viewBox="0 0 31 30" fill="none" xmlns="http://www.w3.org/2000/svg">
<path d="M30.5084 24.3039L29.9579 22.1991C29.8376 21.7386 29.4546 21.4036 28.9822 21.3454L27.0194 21.1039C26.9708 21.0979 26.9257 21.0747 26.8923 21.0386L23.9066 17.7991C23.8626 17.7515 23.8341 17.6924 23.8243 17.6281L23.2092 13.6404C23.1719 13.3981 22.9458 13.2322 22.7028 13.2693C22.4605 13.3067 22.2944 13.5334 22.3318 13.7757L22.9468 17.7634C22.9837 18.0026 23.0899 18.223 23.2538 18.4009L26.2395 21.6403C26.4151 21.8309 26.6536 21.9534 26.911 21.9851L28.8738 22.2266C28.9828 22.24 29.0711 22.3173 29.099 22.4236L29.5739 24.2393L26.7328 23.0528C26.5271 22.9669 26.3294 22.8596 26.1452 22.7341L21.8917 19.835C21.7733 19.7542 21.6857 19.6339 21.6454 19.4964L20.0783 14.1538C20.2214 13.7481 20.2958 13.3194 20.2958 12.8859C20.2958 12.8859 20.2951 9.66174 20.2937 9.63455C20.4583 9.70676 20.6157 9.79538 20.7617 9.90123L21.0059 10.0784C21.5467 10.4707 21.9152 11.0745 22.0171 11.7349C22.0988 12.3074 22.9906 12.166 22.8946 11.5995C22.7568 10.7067 22.2585 9.89026 21.5273 9.35975L21.2831 9.18258C20.8484 8.86717 20.3408 8.6594 19.8106 8.5758C19.5248 8.29963 19.1362 8.12919 18.7084 8.12919H17.5044V7.19341C17.5044 7.19198 17.5042 7.19061 17.5041 7.18918C17.7127 6.95797 17.8871 6.69504 18.0177 6.4119C18.4207 6.28577 18.7922 5.95784 19.0294 5.5039C19.215 5.14866 19.2932 4.758 19.2498 4.40383C19.1995 3.99491 18.9877 3.66484 18.6686 3.4981C18.553 3.43775 18.429 3.40101 18.3002 3.38784V3.38062V2.1144C18.3002 0.948546 17.3517 0 16.1859 0H14.3704C13.2046 0 12.256 0.948546 12.256 2.1144V3.38068V3.38539C12.1191 3.39636 11.987 3.43393 11.8641 3.4981C11.5451 3.66484 11.3333 3.99491 11.283 4.40383C11.2395 4.758 11.3177 5.14872 11.5034 5.5039C11.7431 5.96273 12.1304 6.29704 12.5415 6.41816C12.6668 6.68831 12.8318 6.94008 13.0285 7.16317V8.12925H11.8244C11.3966 8.12925 11.008 8.29969 10.7223 8.5758C10.1922 8.65934 9.68451 8.86723 9.24971 9.18264L9.00551 9.35981C8.27427 9.89032 7.77591 10.7067 7.63821 11.5996L6.70845 17.6283C6.69855 17.6924 6.6701 17.7515 6.62615 17.7992L3.64037 21.0387C3.60716 21.0748 3.56201 21.098 3.51335 21.1039L1.5506 21.3454C1.0783 21.4036 0.695265 21.7386 0.574863 22.1991L0.0244371 24.3039C-0.0393718 24.5479 0.0239004 24.801 0.189446 24.9848C0.0778696 25.2799 0.0192489 25.5936 0.0192489 25.9125C0.0192489 27.3601 1.19697 28.5378 2.64454 28.5378H5.68947C5.57826 28.7804 5.54731 29.0573 5.61082 29.3236C5.72287 29.8521 6.35332 30.1573 6.8372 29.9165L8.53863 29.1231C8.91719 28.9466 9.3202 28.8394 9.73669 28.8046L12.9007 28.5378H27.8883C29.3359 28.5378 30.5136 27.3601 30.5136 25.9126C30.5136 25.5943 30.4545 25.2805 30.343 24.9853C30.5088 24.8014 30.5723 24.5481 30.5084 24.3039ZM21.3917 20.5687L22.8318 21.5502C21.9965 21.435 21.1535 21.3763 20.3094 21.3763C20.3033 21.3763 20.2973 21.377 20.2912 21.3772L20.1269 21.1057C19.5264 20.1133 19.209 18.9759 19.209 17.8161V16.8587C19.209 16.3407 19.3105 15.8292 19.5045 15.3525L20.7933 19.7463C20.8914 20.0805 21.1039 20.3725 21.3917 20.5687ZM13.9163 8.02084C14.311 8.35026 14.7944 8.51551 15.2781 8.51551C15.7523 8.51551 16.2262 8.3567 16.6164 8.04022V8.80223C16.6164 9.15843 16.3266 9.44825 15.9704 9.44825H14.5624C14.2062 9.44825 13.9163 9.15843 13.9163 8.80223V8.02084ZM14.3704 0.887898H16.1859C16.8621 0.887898 17.4123 1.43815 17.4123 2.1144V2.13313H13.1439V2.1144C13.1439 1.43809 13.6942 0.887898 14.3704 0.887898ZM12.2904 5.09278C12.1888 4.89844 12.1429 4.68679 12.1643 4.51218C12.1764 4.27633 12.3489 4.2226 12.5064 4.31527C12.6439 4.38194 12.8061 4.37318 12.9357 4.29195C13.0653 4.21079 13.144 4.06862 13.144 3.91578V3.02102H17.4124V3.90469C17.4124 4.05556 17.489 4.19612 17.6158 4.27788C17.7427 4.35958 17.9023 4.37133 18.0398 4.30895C18.1917 4.2229 18.3573 4.28474 18.3685 4.51212C18.39 4.68673 18.3441 4.89838 18.2425 5.09272C18.0822 5.39966 17.8334 5.5704 17.6705 5.58048C17.4941 5.59139 17.3409 5.70595 17.2806 5.87215C17.166 6.18779 16.9775 6.47708 16.7353 6.70864L16.1359 7.28197C15.655 7.74205 14.9014 7.74199 14.4204 7.28197L13.8211 6.70864C13.579 6.47714 13.3905 6.18797 13.2759 5.87227C13.2137 5.70082 13.053 5.58489 12.8707 5.58C12.7064 5.57553 12.4544 5.40676 12.2904 5.09278ZM11.8244 9.01715H13.0438C13.1487 9.76151 13.7896 10.3361 14.5624 10.3361H15.9704C16.7433 10.3361 17.3841 9.76157 17.4889 9.01715H18.7083C19.094 9.01715 19.4079 9.33095 19.4079 9.7166V12.886C19.4079 13.4091 19.2672 13.9235 19.0009 14.3736C18.5562 15.1257 18.3211 15.985 18.3211 16.8587V17.8162C18.3211 19.138 18.6829 20.4344 19.3672 21.5654L19.5318 21.8373L18.9494 21.9207C16.5056 22.2709 14.0273 22.271 11.5834 21.9207L11.0011 21.8373L11.1656 21.5653C11.85 20.4344 12.2117 19.138 12.2117 17.8161V16.8587C12.2117 15.985 11.9766 15.1257 11.5319 14.3736C11.2657 13.9233 11.125 13.4089 11.125 12.8859V9.71654C11.1249 9.33095 11.4387 9.01715 11.8244 9.01715ZM10.406 21.1057L10.2416 21.3772C10.2355 21.377 10.2296 21.3763 10.2234 21.3763C9.37864 21.3763 8.53523 21.4359 7.69945 21.5512L9.14118 20.5686C9.42897 20.3725 9.64145 20.0804 9.73943 19.7462L11.0283 15.3524C11.2223 15.8291 11.3237 16.3407 11.3237 16.8586V17.816C11.3238 18.9759 11.0064 20.1134 10.406 21.1057ZM1.43384 22.4237C1.46163 22.3174 1.55001 22.2401 1.65908 22.2267L3.62183 21.9852C3.87915 21.9535 4.11763 21.8311 4.29331 21.6405L7.27909 18.4009C7.44309 18.223 7.54918 18.0026 7.58609 17.7635L8.51585 11.7349C8.61765 11.0746 8.98625 10.4709 9.52701 10.0785L9.77122 9.90129C9.91714 9.79544 10.0746 9.70682 10.2392 9.63461C10.2379 9.66174 10.2371 12.886 10.2371 12.886C10.2371 13.3194 10.3116 13.7482 10.4547 14.1539L8.88755 19.4964C8.84718 19.6339 8.7597 19.7542 8.6412 19.835L4.38765 22.7341C4.2035 22.8596 4.00581 22.9669 3.80008 23.0527L0.959088 24.2393L1.43384 22.4237ZM0.907087 25.9125C0.907087 25.6465 0.968868 25.386 1.08504 25.1489L3.80121 24.0144L5.30119 23.9335C6.53014 23.867 7.76225 23.9716 8.96269 24.2438C9.03688 24.257 9.4437 24.3629 9.51139 24.357C9.71409 24.357 9.89716 24.2172 9.94392 24.0112C9.99819 23.772 9.84832 23.5343 9.60925 23.48L9.15913 23.3779C7.96614 23.1073 6.74417 22.9923 5.52244 23.035L5.83588 22.8213C7.21987 22.4643 8.64442 22.2775 10.0737 22.2654C10.0751 22.2684 10.0759 22.2715 10.0773 22.2745C10.1814 22.4944 10.3874 22.6463 10.6282 22.6808L11.4574 22.7996C12.7211 22.9806 13.9938 23.0712 15.2663 23.0712C16.539 23.0712 17.8115 22.9806 19.0752 22.7996L19.9044 22.6808C20.1452 22.6463 20.3512 22.4944 20.4553 22.2746C20.4568 22.2716 20.4576 22.2684 20.459 22.2654C21.8882 22.2776 23.3127 22.4643 24.6967 22.8213L25.0103 23.035C23.7886 22.9924 22.5666 23.1073 21.3736 23.3779L15.2664 24.7632L13.2106 24.2969C12.5563 23.9296 11.7281 24.0545 11.2136 24.6094L10.4283 25.4563C10.3473 25.5437 10.2452 25.6111 10.133 25.6514L8.23527 26.3317C7.84604 26.4712 7.49729 26.687 7.1987 26.9732L6.49257 27.6499H2.64448C1.68651 27.6499 0.907087 26.8705 0.907087 25.9125ZM9.66238 27.9197C9.14142 27.9633 8.63709 28.0974 8.16335 28.3183L6.47212 29.107C6.45041 28.9994 6.48542 28.8866 6.56503 28.8103L7.81306 27.6143C8.021 27.415 8.2639 27.2647 8.53493 27.1675L10.4327 26.4872C10.6783 26.3991 10.9019 26.2515 11.0794 26.0601L11.8647 25.2132C12.1192 24.9359 12.5403 24.9015 12.8454 25.1117L13.5485 25.5508C13.7569 25.681 13.9815 25.7843 14.216 25.8578L14.246 25.8672V27.5333L9.66238 27.9197ZM27.8883 27.6499H15.1339V25.7038L21.5701 24.2439C22.7706 23.9716 24.0024 23.8671 25.2316 23.9335C25.2316 23.9335 26.7046 24.0117 26.722 24.0106L29.4481 25.1491C29.5642 25.3863 29.6257 25.6472 29.6257 25.9126C29.6257 26.8705 28.8463 27.6499 27.8883 27.6499Z" fill="#C24BE7"/>
</svg>
