<svg width="22" height="20" viewBox="0 0 22 20" fill="none" xmlns="http://www.w3.org/2000/svg">
<path d="M9.57341 1.80158C10.0224 0.419614 11.9776 0.419615 12.4266 1.80158L13.4432 4.93026C13.7778 5.96031 14.7377 6.65771 15.8208 6.65771H19.1105C20.5636 6.65771 21.1677 8.51714 19.9922 9.37124L17.3307 11.3049C16.4545 11.9415 16.0879 13.0699 16.4226 14.1L17.4391 17.2286C17.8882 18.6106 16.3064 19.7598 15.1309 18.9057L12.4695 16.9721C11.5932 16.3354 10.4068 16.3354 9.53054 16.9721L6.86913 18.9057C5.69355 19.7598 4.11183 18.6106 4.56086 17.2286L5.57743 14.1C5.91212 13.0699 5.54547 11.9415 4.66925 11.3049L2.00784 9.37124C0.832272 8.51714 1.43644 6.65771 2.88952 6.65771H6.1792C7.26227 6.65771 8.22216 5.96031 8.55685 4.93026L9.57341 1.80158Z" fill="#C24BE7" stroke="#C24BE7"/>
</svg>
