<svg width="20" height="17" viewBox="0 0 20 17" fill="none" xmlns="http://www.w3.org/2000/svg">
<path d="M19.3346 3.24544C18.9354 2.82719 18.384 2.58004 17.7567 2.58004H14.6008V2.54202C14.6008 2.06673 14.4106 1.61046 14.0875 1.30628C13.7643 0.983083 13.327 0.792969 12.8517 0.792969H7.14829C6.65399 0.792969 6.21673 0.983083 5.89354 1.30628C5.57034 1.62947 5.38023 2.06673 5.38023 2.54202V2.58004H2.24335C1.61597 2.58004 1.06464 2.82719 0.665399 3.24544C0.26616 3.64468 0 4.21502 0 4.82339V14.2911C0 14.9184 0.247148 15.4698 0.665399 15.869C1.06464 16.2683 1.63498 16.5344 2.24335 16.5344H17.7567C18.384 16.5344 18.9354 16.2873 19.3346 15.869C19.7338 15.4698 20 14.8994 20 14.2911V4.82339C20 4.19601 19.7529 3.64468 19.3346 3.24544ZM19.0114 14.2911H18.9924C18.9924 14.6333 18.8593 14.9375 18.6312 15.1656C18.403 15.3937 18.0989 15.5268 17.7567 15.5268H2.24335C1.90114 15.5268 1.59696 15.3937 1.36882 15.1656C1.14068 14.9375 1.0076 14.6333 1.0076 14.2911V4.82339C1.0076 4.48118 1.14068 4.177 1.36882 3.94886C1.59696 3.72073 1.90114 3.58765 2.24335 3.58765H5.91255C6.19772 3.58765 6.42586 3.35951 6.42586 3.07434V2.52301C6.42586 2.31388 6.5019 2.12377 6.63498 1.99069C6.76806 1.85761 6.95818 1.78156 7.1673 1.78156H12.8517C13.0608 1.78156 13.251 1.85761 13.384 1.99069C13.5171 2.12377 13.5932 2.31388 13.5932 2.52301V3.07434C13.5932 3.35951 13.8213 3.58765 14.1065 3.58765H17.7757C18.1179 3.58765 18.4221 3.72073 18.6502 3.94886C18.8783 4.177 19.0114 4.48118 19.0114 4.82339V14.2911Z" fill="#BDBDBD"/>
<path d="M10.001 4.88086C8.70825 4.88086 7.52954 5.41318 6.69304 6.24968C5.83753 7.1052 5.32422 8.26489 5.32422 9.55767C5.32422 10.8504 5.85654 12.0292 6.69304 12.8657C7.54855 13.7212 8.70825 14.2345 10.001 14.2345C11.2938 14.2345 12.4725 13.7022 13.309 12.8657C14.1645 12.0101 14.6778 10.8504 14.6778 9.55767C14.6778 8.26489 14.1455 7.08618 13.309 6.24968C12.4725 5.41318 11.2938 4.88086 10.001 4.88086ZM12.5866 12.1622C11.9212 12.8086 11.0086 13.2269 10.001 13.2269C8.99342 13.2269 8.08087 12.8086 7.41547 12.1622C6.75007 11.4968 6.35084 10.5843 6.35084 9.57668C6.35084 8.56908 6.76909 7.65653 7.41547 6.99113C8.08087 6.32573 8.99342 5.92649 10.001 5.92649C11.0086 5.92649 11.9212 6.34474 12.5866 6.99113C13.252 7.65653 13.6512 8.56908 13.6512 9.57668C13.6702 10.5843 13.252 11.4968 12.5866 12.1622Z" fill="#BDBDBD"/>
<path d="M16.7675 6.72445C17.282 6.72445 17.6991 6.30737 17.6991 5.79289C17.6991 5.2784 17.282 4.86133 16.7675 4.86133C16.253 4.86133 15.8359 5.2784 15.8359 5.79289C15.8359 6.30737 16.253 6.72445 16.7675 6.72445Z" fill="#BDBDBD"/>
</svg>
